<?xml version="1.0" encoding="UTF-8"?>
<svg version="1.1" viewBox="0 0 349.35 494.03" xmlns="http://www.w3.org/2000/svg">
 <defs>
  <style>.cls-1 {
        fill: #007480;
      }</style>
 </defs>
 <g transform="translate(0 4.0981)" data-name="Calque_1">
  <g>
   <path class="cls-1" d="m170.9 286.16c-43.564 0-77.11 7.4706-100.64 22.367-23.528 14.897-35.292 36.197-35.292 63.856s11.764 48.959 35.292 63.989c23.528 14.986 57.074 22.501 100.64 22.501s77.018-7.515 100.36-22.501c23.344-14.986 35.017-36.33 35.017-63.989s-11.672-48.914-35.017-63.856c-23.344-14.897-56.799-22.367-100.36-22.367z"/>
   <path class="cls-1" d="m198.32 0h-159.21c-21.6 0-39.11 17.51-39.11 39.11v415.8c0 21.6 17.51 39.11 39.11 39.11h271.12c21.6 0 39.11-17.51 39.11-39.11v-303.88zm-108 427.96h-16.43v-61.98h16.43zm0-69.38h-16.43v-14.96h16.43zm71.87 69.38h-16.6v-37.7c0-3.26-0.44-5.76-1.31-7.51-1.59-3.18-4.62-4.78-9.1-4.78-5.5 0-9.27 2.33-11.32 6.99-1.06 2.46-1.59 5.61-1.59 9.44v33.55h-16.15v-61.87h15.64v9.04c2.09-3.18 4.06-5.48 5.91-6.88 3.34-2.5 7.56-3.75 12.68-3.75 6.41 0 11.65 1.68 15.72 5.03 4.08 3.35 6.11 8.92 6.11 16.69v41.74zm44.41-49.99h-10.63v49.98h-16.15v-49.98h-9.04v-11.43h8.87v-3.98c0-6.63 1.12-11.2 3.35-13.7 2.35-3.72 8.02-5.57 17-5.57 1.02 0 1.95 0.03 2.79 0.09 0.83 0.06 1.97 0.14 3.41 0.26v13.19c-0.91-0.11-2.44-0.2-4.58-0.26s-3.62 0.42-4.44 1.42-1.22 2.11-1.22 3.33v5.23h10.63v11.43zm61.02 42.45c-5.23 6.46-13.17 9.7-23.83 9.7s-18.59-3.23-23.83-9.7-7.85-14.24-7.85-23.34 2.62-16.7 7.85-23.26 13.17-9.84 23.83-9.84 18.59 3.28 23.83 9.84c5.23 6.56 7.85 14.31 7.85 23.26s-2.62 16.88-7.85 23.34zm-82.81-255.89v-147.08l147.08 147.08z"/>
   <text transform="matrix(1.46 0 0 1.5459 -67.456 -167.88)" x="62.838081" y="385.22476" fill="#ffffff" font-family="Arial" font-size="74.667px" font-weight="bold" letter-spacing=".05px" stroke-width=".66564" style="font-variant-caps:normal;font-variant-east-asian:normal;font-variant-ligatures:normal;font-variant-numeric:normal;inline-size:280.477;line-height:1;mix-blend-mode:normal;white-space:pre" xml:space="preserve"><tspan x="62.838081" y="385.22476">annex</tspan></text>
  </g>
 </g>
</svg>
