<?xml version="1.0" encoding="UTF-8"?>
<svg id="Calque_2" xmlns="http://www.w3.org/2000/svg" viewBox="0 0 370.01 496.72">
  <defs>
    <style>
      .cls-1 {
        fill: #007480;
      }
    </style>
  </defs>
  <g id="Calque_1-2" data-name="Calque_1">
    <g>
      <path class="cls-1" d="M335.75,0H98.29c-18.92,0-34.26,15.34-34.26,34.26v364.17c0,18.92,15.34,34.26,34.26,34.26h237.46c18.92,0,34.26-15.34,34.26-34.26V34.26c0-18.92-15.34-34.26-34.26-34.26Z"/>
      <path class="cls-1" d="M94.29,456.69c-29.92,0-54.26-24.34-54.26-54.26V64.04h-5.78C15.34,64.04,0,79.37,0,98.29v364.17c0,18.92,15.34,34.26,34.26,34.26h237.46c18.92,0,34.26-15.34,34.26-34.26v-5.78H94.29Z"/>
    </g>
  </g>
</svg>