<?xml version="1.0" encoding="UTF-8"?>
<svg id="Calque_2" xmlns="http://www.w3.org/2000/svg" viewBox="0 0 349.35 494.03">
  <defs>
    <style>
      .cls-1 {
        fill: #007480;
      }
    </style>
  </defs>
  <g id="Calque_1-2" data-name="Calque_1">
    <g>
      <path class="cls-1" d="M243.74,377.69c-4.74,0-8.39,1.68-10.95,5.03-2.56,3.35-3.84,8.14-3.84,14.36s1.28,11.01,3.84,14.39c2.56,3.37,6.21,5.06,10.95,5.06s8.38-1.69,10.92-5.06c2.54-3.37,3.81-8.17,3.81-14.39s-1.27-11-3.81-14.36c-2.54-3.35-6.18-5.03-10.92-5.03Z"/>
      <path class="cls-1" d="M198.32,0H39.11C17.51,0,0,17.51,0,39.11v415.8c0,21.6,17.51,39.11,39.11,39.11h271.12c21.6,0,39.11-17.51,39.11-39.11V151.03L198.32,0ZM90.32,427.96h-16.43v-61.98h16.43v61.98ZM90.32,358.58h-16.43v-14.96h16.43v14.96ZM162.19,427.96h-16.6v-37.7c0-3.26-.44-5.76-1.31-7.51-1.59-3.18-4.62-4.78-9.1-4.78-5.5,0-9.27,2.33-11.32,6.99-1.06,2.46-1.59,5.61-1.59,9.44v33.55h-16.15v-61.87h15.64v9.04c2.09-3.18,4.06-5.48,5.91-6.88,3.34-2.5,7.56-3.75,12.68-3.75,6.41,0,11.65,1.68,15.72,5.03,4.08,3.35,6.11,8.92,6.11,16.69v41.74ZM206.6,377.97h-10.63v49.98h-16.15v-49.98h-9.04v-11.43h8.87v-3.98c0-6.63,1.12-11.2,3.35-13.7,2.35-3.72,8.02-5.57,17-5.57,1.02,0,1.95.03,2.79.09.83.06,1.97.14,3.41.26v13.19c-.91-.11-2.44-.2-4.58-.26-2.14-.06-3.62.42-4.44,1.42-.82,1-1.22,2.11-1.22,3.33v5.23h10.63v11.43ZM267.62,420.42c-5.23,6.46-13.17,9.7-23.83,9.7s-18.59-3.23-23.83-9.7-7.85-14.24-7.85-23.34,2.62-16.7,7.85-23.26c5.23-6.56,13.17-9.84,23.83-9.84s18.59,3.28,23.83,9.84c5.23,6.56,7.85,14.31,7.85,23.26s-2.62,16.88-7.85,23.34ZM184.81,164.53V17.45c49.03,49.03,98.05,98.05,147.08,147.08h-147.08Z"/>
    </g>
  </g>
</svg>