<?xml version="1.0" encoding="UTF-8"?>
<svg id="Calque_2" xmlns="http://www.w3.org/2000/svg" viewBox="0 0 349.35 494.03">
  <defs>
    <style>
      .cls-1 {
        fill: #fff;
      }
    </style>
  </defs>
  <g id="Calque_1-2" data-name="Calque_1">
    <path class="cls-1" d="M198.32,0H39.11C17.51,0,0,17.51,0,39.11v415.8c0,21.6,17.51,39.11,39.11,39.11h271.12c21.6,0,39.11-17.51,39.11-39.11V151.03L198.32,0ZM98.87,408.79c1.93,5.16,5.57,7.73,10.92,7.73,3.79,0,6.48-1.02,8.07-3.07,1.59-2.05,2.56-4.7,2.9-7.96h16.55c-.38,4.93-2.16,9.59-5.35,13.99-5.08,7.09-12.6,10.63-22.58,10.63s-17.31-2.96-22.01-8.87-7.05-13.59-7.05-23.03c0-10.65,2.6-18.94,7.79-24.85,5.19-5.91,12.36-8.87,21.49-8.87,7.77,0,14.13,1.74,19.08,5.23,4.95,3.49,7.88,9.65,8.79,18.48h-16.6c-.3-2.31-1.08-4.4-2.33-6.26-1.82-2.5-4.64-3.75-8.47-3.75-5.46,0-9.19,2.71-11.2,8.13-1.06,2.88-1.59,6.71-1.59,11.49s.53,8.21,1.59,10.97ZM194.55,424.23c-4.57,3.89-11.63,5.83-21.18,5.83s-16.94-2.06-21.58-6.17c-4.64-4.11-6.97-9.35-6.97-15.72h16.43c.34,2.88,1.08,4.93,2.22,6.14,2.01,2.16,5.72,3.24,11.15,3.24,3.18,0,5.71-.47,7.59-1.42,1.88-.95,2.81-2.37,2.81-4.26s-.76-3.2-2.27-4.15c-1.52-.95-7.15-2.58-16.89-4.89-7.01-1.74-11.96-3.92-14.84-6.54-2.88-2.58-4.32-6.29-4.32-11.15,0-5.72,2.25-10.64,6.74-14.76,4.49-4.11,10.81-6.17,18.96-6.17s14.05,1.54,18.94,4.61c4.85,3.11,7.64,8.45,8.36,16.04h-16.21c-.23-2.09-.82-3.73-1.76-4.95-1.78-2.2-4.81-3.3-9.1-3.3-3.53,0-6.04.55-7.53,1.65-1.5,1.1-2.25,2.39-2.25,3.87,0,1.86.8,3.2,2.39,4.04,1.59.87,7.22,2.37,16.89,4.49,6.44,1.52,11.28,3.81,14.5,6.88,3.18,3.11,4.78,6.99,4.78,11.66,0,6.14-2.28,11.15-6.85,15.04ZM246.66,427.96h-17.12l-22.23-61.98h18.2l12.91,45.72,13.19-45.72h17.4l-22.35,61.98ZM184.81,164.53V17.45c49.03,49.03,98.05,98.05,147.08,147.08h-147.08Z"/>
  </g>
</svg>