<?xml version="1.0" encoding="UTF-8" standalone="no"?>
<!-- Created with Inkscape (http://www.inkscape.org/) -->

<svg
   version="1.1"
   id="svg1"
   width="311.67999"
   height="140.8"
   viewBox="0 0 311.67999 140.8"
   sodipodi:docname="slab-cantilever.png"
   xml:space="preserve"
   xmlns:inkscape="http://www.inkscape.org/namespaces/inkscape"
   xmlns:sodipodi="http://sodipodi.sourceforge.net/DTD/sodipodi-0.dtd"
   xmlns:xlink="http://www.w3.org/1999/xlink"
   xmlns="http://www.w3.org/2000/svg"
   xmlns:svg="http://www.w3.org/2000/svg"><defs
     id="defs1" /><sodipodi:namedview
     id="namedview1"
     pagecolor="#ffffff"
     bordercolor="#000000"
     borderopacity="0.25"
     inkscape:showpageshadow="2"
     inkscape:pageopacity="0.0"
     inkscape:pagecheckerboard="0"
     inkscape:deskcolor="#d1d1d1" />
     <path
     style="fill:#000000"
     d="m 51.83029,136.79854 h -0.64 v -0.96 -0.96 h -1.028473 -1.028473 l 0.368387,-0.96 0.368386,-0.96 h -1.297684 -1.297685 l 0.395542,-0.64 0.395542,-0.64 h 1.562229 1.562229 v -9.92 -9.92 h 0.64 0.64 v 9.34848 9.34847 l 1.031258,-0.39573 1.031258,-0.39573 -0.371172,0.96726 -0.371172,0.96725 h 99.179908 99.17992 v -9.92 -9.92 h 0.64 0.64 v 9.28 9.28 l 0.8,-0.16 0.8,-0.16 -0.16,0.8 -0.16,0.8 h 0.95999 0.96 v 0.64 0.64 h -1.59999 -1.6 v 1.92 1.92 h -0.64 -0.64 v -1.25991 l 0,-1.25991 -1.07111,0.41102 -1.07111,0.41102 0.41102,-1.07111 0.41102,-1.07111 H 151.6502 52.47029 v 1.92 1.92 z m 100.48,-7.04 h -2.56 v -3.84 -3.84 h 0.96 0.96 v 3.2 3.2 h 1.6 1.6 v 0.64 0.64 z m -13.00947,-19.96136 -2.35053,0.19863 v -1.30388 -1.30388 l 1.6,-1.04836 1.6,-1.04836 v -0.88639 -0.8864 h -0.96 -0.96 v 0.768 0.768 l -0.77257,-0.77257 -0.77258,-0.77257 1.06893,-1.06893 1.06893,-1.06893 1.62365,0.73978 1.62364,0.73978 v 0.88741 0.88741 l -1.32645,1.68631 -1.32645,1.68631 h 1.37978 1.37978 l -0.2628,0.8 -0.26281,0.8 z m 5.62793,0.12136 h -0.90895 l -1.06156,-1.62014 -1.06156,-1.62014 0.57162,-1.99315 0.57163,-1.99315 1.15527,-0.70671 1.15528,-0.70671 1.2399,1.51091 1.23991,1.5109 v 1.38669 1.3867 l -0.99629,1.4224 -0.99629,1.4224 z m 0.0215,-1.92 h 0.96 v -2.24 -2.24 h -0.96 -0.96 v 2.24 2.24 z m 130.40766,0 h -0.60928 l -1.05919,-1.17039 -1.0592,-1.17039 v -0.42961 -0.42961 h 3.84 3.84 v 0.64 0.64 h -2.53991 -2.53991 l 0.36838,0.96 0.36839,0.96 z m -259.367659,-1.92 h -0.64 v -1.83125 -1.83125 l -1.524981,0.29152 -1.524981,0.29152 -0.459413,-0.74334 -0.459413,-0.74335 1.337195,-0.34969 1.337196,-0.34968 -0.350573,-0.56724 -0.350572,-0.567236 h 0.997771 0.997771 v -9.28 -9.280001 h -2.24 -2.24 v -0.64 -0.64 h 0.64 0.64 v -1.006927 -1.006928 l -1.12,0.23316 -1.1200002,0.23316 0.1524542,1.413768 0.152455,1.413767 H 8.9950893 7.7749788 L 6.7626348,80.73007 5.7502909,80.341598 v -1.904861 l 0,-1.90486 0.7823467,0.260782 0.7823468,0.260782 0.433858,1.552551 0.433858,1.552551 0.063795,-1.361635 0.063795,-1.361636 0.8683773,-0.720689 0.8683769,-0.720689 2.040194,0.408039 2.040195,0.408039 -0.188572,-0.885714 -0.188571,-0.885715 0.8,0.16 0.8,0.16 v -0.96 -0.96 h 0.64 0.64 v 1.6 1.6 h 9.919999 9.92 v 0.64 0.64 h -9.259913 -9.259914 l 0.368387,0.96 0.368386,0.96 h 8.891527 8.891527 v 0.64 0.64 h -9.259913 -9.259914 l 0.411023,1.07111 0.411024,1.07111 -1.07111,-0.411024 -1.071109,-0.411023 0,9.243244 v 9.24324 l 9.707411,0.17667 9.70741,0.17667 0.265923,0.8 0.265922,0.8 h -9.013333 -9.013333 v 0.70848 0.70847 l -0.96,-0.36839 -0.96,-0.36838 v 1.25991 1.25991 z m -2.24,-26.239997 h 0.32 v -0.32 -0.32 h -0.32 -0.32 v 0.32 0.32 z m 3.2,0 h 0.32 v -0.32 -0.32 h -0.32 -0.32 v 0.32 0.32 z M 171.51029,106.07854 h -0.64 v -2.62847 -2.62847 l -0.96,0.36838 -0.96,0.36839 v -0.52072 -0.52072 l 1.17039,-1.059194 1.1704,-1.059192 h 0.4296 0.42961 v 3.839996 3.84 z m 105.89608,-2.83583 -1.94391,0.3814 -1.57609,-1.2911 -1.57609,-1.2911 0.80543,-1.321684 0.80542,-1.321682 h -5.76542 -5.76543 v -0.64 -0.64 h 9.57992 9.57991 l -0.40867,-1.064989 -0.40868,-1.064989 0.74876,0.46276 0.74876,0.462759 v -1.637771 -1.63777 h -9.92 -9.92 v -0.623331 -0.62333 l 9.76,-0.17667 9.76,-0.176669 -1.92,-0.840422 -1.92,-0.840423 -1.39223,-1.719578 -1.39223,-1.719578 -0.84777,0.88 -0.84777,0.88 0.8,0.293334 0.8,0.293333 v 0.96 0.96 l -0.75427,-0.251425 -0.75428,-0.251426 -0.68245,-1.081908 -0.68245,-1.081908 0.70533,-1.12 0.70532,-1.12 1.1085,-0.217923 1.10849,-0.217923 1.54291,1.449484 1.5429,1.449484 v -1.391561 -1.391561 h 0.64 0.64 v 2.24 2.240001 h 0.96 0.96 v -5.760001 -5.76 h -9.92 -9.92 v -0.64 -0.64 h 9.28 9.28 l -0.16,-0.8 -0.16,-0.8 0.8,0.16 0.8,0.16 v -14.72 -14.72 h -9.95777 -9.95777 l 0.39554,-0.64 0.39555,-0.64 h 8.92223 8.92222 l -0.16,-0.48 -0.16,-0.48 0.64,-0.198188 0.64,-0.198187 0.47459,-1.282929 0.47459,-1.28293 0.64541,0.398888 0.64541,0.398887 v 1.562229 1.56223 l 8.61992,0 8.61991,0 -0.41102,-1.07111 -0.41103,-1.07111 1.07111,0.411024 1.07111,0.411023 v -1.259914 -1.259914 h 0.64 0.64 v 1.92 1.920001 h 1.92 1.92 v 0.64 0.64 h -1.25991 -1.25991 l 0.41102,1.071109 0.41102,1.07111 -1.07111,-0.411024 -1.07111,-0.411023 v 24.939914 24.939915 h 1.92 1.92 v 0.64 0.64 h -1.25991 -1.25991 l 0.41102,1.071109 0.41102,1.071107 -1.07111,-0.41102 -1.07111,-0.411024 v 1.259914 1.25991 h -0.64 -0.64 v -1.92 -1.919996 h -8.99777 -8.99777 l 0.37708,0.610131 0.37709,0.610131 -1.09348,1.277084 -1.09347,1.27708 -0.52584,-0.32498 -0.52584,-0.32499 v -1.562227 -1.562229 h -1.30251 -1.30252 l 0.63772,1.19159 0.63772,1.191586 -0.7752,1.03979 -0.77521,1.03979 z m -0.68837,-1.77383 1.89371,-0.19034 0.26262,-0.8 0.26262,-0.799996 h -2.25556 -2.25556 l -0.34038,0.550736 -0.34037,0.55073 0.4396,0.4396 0.4396,0.4396 z m 16.0522,-4.350336 h 8.61991 l -0.41102,-1.07111 -0.41103,-1.07111 1.07111,0.411024 1.07111,0.411023 V 70.858457 45.918543 h -8.93991 l -8.93991,0 0.36838,0.96 0.36839,0.96 h -0.70847 -0.70848 v 14.4 14.4 h 1.6 1.6 v 0.64 0.64 h -1.25991 -1.25991 l 0.36838,0.96 0.36839,0.96 h -0.70847 -0.70848 v 5.76 5.760001 h 1.6 1.6 v 0.64 0.64 h -1.25991 -1.25991 l 0.36838,0.96 0.36839,0.96 h -0.70847 -0.70848 v 1.28 1.28 z m 4.34008,-20.61442 -1.12,0.550616 -1.11956,-0.254942 -1.11956,-0.254942 -0.41481,-1.652735 -0.41481,-1.652735 1.06147,-0.776166 1.06147,-0.776167 -0.9671,-0.80262 -0.9671,-0.802619 v -1.073636 -1.073635 l 0.768,-0.768 0.768,-0.768 h 2.33281 2.33281 l 1.17883,1.302588 1.17882,1.302588 -1.32852,1.328523 -1.32852,1.328523 1.22355,1.223557 1.22356,1.223557 -0.67719,1.265332 -0.67718,1.265332 h -0.62968 -0.62967 l 0.40157,-1.6 0.40158,-1.6 h -0.70938 -0.70939 v 1.257483 1.257482 z m -1.01333,-1.145581 h 0.85333 v -0.96 -0.96 h -1.28 -1.28 v 0.533334 0.533333 l 0.42667,0.426667 0.42667,0.426666 z m 1.17333,-5.204041 0.64,0.06444 0.95465,-0.60355 0.95465,-0.60355 -0.71668,-0.716684 -0.71668,-0.716683 -1.78861,0.210033 -1.78861,0.210034 -0.24478,0.746252 -0.24477,0.746252 1.15542,0.299507 1.15541,0.299507 z m -236.47999,32.458108 -9.28,0.40566 -0.468347,-0.48487 -0.468346,-0.48488 0.395119,-1.66499 0.39512,-1.664986 -1.881793,1.759996 -1.881793,1.76 h -0.846491 -0.84649 l 2.64151,-2.865697 2.641511,-2.8657 V 95.402957 94.29877 l -2.56,2.499774 -2.56,2.499773 v -0.96 -0.96 l 2.56,-2.499773 2.56,-2.499774 v -0.95566 -0.95566 l -2.230413,2.161801 -2.230412,2.161801 -0.423164,-0.423164 -0.423164,-0.423164 2.653576,-2.878791 2.653577,-2.87879 V 87.082956 85.97877 l -2.56,2.499773 -2.56,2.499774 v -0.96 -0.96 l 2.56,-2.499774 2.56,-2.499773 v -0.95566 -0.95566 l -2.230413,2.161801 -2.230412,2.161801 -0.449672,-0.449672 -0.449672,-0.449672 2.75368,-2.805796 2.75368,-2.805795 -0.236652,-0.709956 -0.236652,-0.709956 -2.396943,1.975764 -2.396944,1.975763 0.02403,-0.526594 0.02403,-0.526595 2.189824,-2.56 2.189824,-2.56 h 22.105818 22.105819 l 3.27e-4,-1.44 3.27e-4,-1.44 h 12.160001 12.16 v 1.28 1.28 h 45.68535 45.68536 l 0.33473,-1.28 0.33472,-1.28 h 11.54215 11.54214 l 0.402,-0.650439 0.40199,-0.65044 0.50995,0.315165 0.50995,0.315164 -0.30009,1.569811 -0.30009,1.569811 6.30592,0.205464 6.30592,0.205464 1.79145,-0.237255 1.79145,-0.237256 0.36855,-1.842744 0.36855,-1.842745 h 0.57325 0.57325 l -0.17325,12.96 -0.17325,12.960001 -2.4,0.198633 -2.4,0.198634 v -0.678634 -0.678633 h 1.91961 1.91962 l -0.15962,-2.08 -0.15961,-2.08 -7.36,0.422711 -7.36,0.422712 -0.48,0.05729 -0.48,0.05729 v 1.6 1.6 h 1.92 1.92 v 0.676798 0.676799 l -2.72,-0.196799 -2.72,-0.196798 -0.20735,-2.171136 -0.20735,-2.171136 -5.87265,0.387107 -5.87265,0.387106 -27.84,1.381653 -27.84,1.381653 -0.64624,0.794414 -0.64623,0.794414 -25.27377,0.357739 -25.27376,0.357739 -11.2,0.688813 -11.200001,0.68881 -11.2,0.62562 -11.2,0.62561 z m -6.24,-1.70459 0.48,0.0505 v -0.62356 -0.623566 l 1.979475,-1.023626 1.979475,-1.023627 0.420525,0.454811 0.420525,0.45481 -0.709242,0.255461 -0.709241,0.255462 -1.176782,0.860483 -1.176781,0.860482 4.446023,-0.24077 4.446022,-0.24077 14.08,-0.672317 14.08,-0.672322 11.520001,-0.609204 11.52,-0.609205 11.84,-0.635313 11.84,-0.635314 12.48,-0.651229 12.48,-0.65123 26.88,-1.256016 26.88,-1.256015 14.4,-0.688837 14.4,-0.688837 2.08,-0.318874 2.08,-0.318874 v -6.051 -6.051 H 173.82493 96.139577 l -0.334728,1.28 -0.334727,1.28 h -1.147917 -1.147916 l 0.768,-0.768 0.768,-0.768 v -0.512 -0.512 h -21.12 -21.119999 v 10.826667 10.82667 l 0.8,0.3228 0.8,0.32281 z m 6.442074,-3.170769 -1.162074,-0.02129 1.510901,-1.258708 1.510902,-1.258707 h 0.889098 0.889098 v 0.617482 0.617482 l -1.237925,0.662518 -1.237925,0.662518 z m 5.527812,-2.538707 h -0.609887 v -0.537271 -0.53727 l 1.630114,-0.74273 1.630114,-0.742729 h 0.609886 0.609886 v 0.53727 0.53727 l -1.630114,0.74273 -1.630113,0.74273 z m 7.208974,-3.487477 -2.058861,0.865686 v -0.535498 -0.535499 l 1.577483,-1.033606 1.577483,-1.033606 h 0.71585 0.715851 l -0.234473,0.703418 -0.234473,0.703419 z m 5.616876,-2.590319 -1.843096,0.953102 -0.377246,-0.610397 -0.377246,-0.610397 1.909143,-0.987256 1.909143,-0.987257 h 0.709554 0.709553 l -0.398355,0.644552 -0.398355,0.644551 z m 3.556045,-2.242205 h -0.351782 v -0.521464 -0.521464 l 2.24,-1.068181 2.24,-1.068182 v 0.61321 0.613211 l -1.888218,0.976435 -1.888217,0.976435 z m 5.76,-2.56 h -0.351782 v -0.885356 -0.885355 l 1.12,-0.322034 1.12,-0.322034 1.12,-0.461083 1.12,-0.461083 v 0.692037 0.692038 l -1.888218,0.976435 -1.888217,0.976435 z m 74.794879,13.389474 1.22667,0.05053 -0.38667,-0.386667 -0.38666,-0.386667 -0.84,0.336141 -0.84,0.33614 z m 81.33334,0.690527 h -2.24 v -0.64 -0.64 h 2.24 2.24 v 0.64 0.64 z M 10.902291,93.899082 9.9102908,93.87962 l -1.12,-0.65234 -1.12,-0.65234 v -1.248198 -1.248198 h -0.96 -0.9599999 v -0.64 -0.640001 h 3.8399999 3.8400002 v 1.792001 1.792 l -0.768,0.768 -0.768,0.768 z m 0.389962,-1.708224 0.858038,-0.32926 v -0.591614 -0.591613 l -1.003019,-0.384895 -1.00302,-0.384894 -0.7516305,0.751631 -0.7516309,0.751631 0.8966125,0.554137 0.8966129,0.554137 z m 264.722257,-7.946555 -1.14423,-0.07424 -1.15652,-0.299721 -1.15653,-0.299721 0.19653,-2.026038 0.19652,-2.026039 0.64,0.122229 0.64,0.12223 0.41621,1.47777 0.4162,1.477771 0.0638,-1.041635 0.0638,-1.041635 0.95169,-0.789832 0.95169,-0.789832 1.53184,0.384467 1.53183,0.384466 0.31279,1.196099 0.31279,1.1961 -0.58812,1.050901 -0.58811,1.050901 h -0.9282 -0.9282 v -0.64 -0.64 h 0.68693 0.68693 l -0.21569,-1.12 -0.2157,-1.12 h -0.95123 -0.95124 l 0.18423,1.76 0.18422,1.76 z M 46.352519,78.558543 H 46.07029 v -0.997771 -0.997771 l 0.65044,0.401994 0.650439,0.401994 -0.36821,0.595777 -0.368211,0.595777 z m 188.837771,-7.68 h -0.96 v -2.56 -2.56 h 0.96 0.96 v 2.56 2.56 z m 17.6,0 h -0.64 v -2.88 -2.88 h 0.64 0.64 v 2.88 2.88 z m 22.92022,-4.530526 -1.48023,-0.05053 -0.8,-0.322807 -0.8,-0.322807 V 63.78521 61.918543 h 0.96 0.96 l 0.009,1.44 0.009,1.44 0.83763,-1.6 0.83763,-1.6 -1.84779,-0.818455 -1.84779,-0.818455 0.20073,-1.741545 0.20072,-1.741545 h 0.61115 0.61115 l 0.44505,1.6 0.44506,1.6 0.0638,-1.041636 0.0638,-1.041635 0.95169,-0.789832 0.95169,-0.789831 1.60831,0.40366 1.60831,0.40366 v 1.870036 1.870036 l -0.64686,0.399784 -0.64686,0.399784 0.93642,1.336935 0.93643,1.336935 -0.63208,1.181052 -0.63208,1.181052 h -0.93748 -0.93749 v -0.64 -0.64 h 0.64 0.64 v -1.006928 -1.006927 l -1.12,0.222704 -1.12,0.222704 0.20023,1.424223 0.20023,1.424224 z m 2.22109,-5.069474 h 0.67202 l -0.42112,-0.421114 -0.42111,-0.421114 0.73532,-0.88601 0.73533,-0.886011 -0.74088,-0.740875 -0.74088,-0.740876 -0.61903,0.619038 -0.61904,0.619038 0.37368,1.428962 0.37368,1.428962 z m -42.70268,2.56 h -0.99863 V 61.22521 58.611876 l 0.8,0.262805 0.8,0.262805 0.19863,2.350529 0.19863,2.350528 z m 17.56137,0 h -0.64 v -2.56 -2.56 h 0.64 0.64 v 2.56 2.56 z m -17.20691,-6.765176 -0.62465,0.386055 -0.41188,-0.666436 -0.41188,-0.666436 0.1125,-2.064004 0.1125,-2.064003 -0.0648,-9.838365 -0.0648,-9.838365 -0.96,0.796729 -0.96,0.79673 v -0.590365 -0.590365 l 0.768,-0.768 0.768,-0.768 -8.288,0.007 -8.288,0.007 -2.4,0.396696 -2.4,0.396696 v 9.516261 9.516261 h -0.64 -0.64 l -0.10083,-8.480001 -0.10082,-8.48 0.0335,-0.822453 0.0335,-0.822454 -0.89263,0.740818 -0.89263,0.740819 V 32.951551 31.98783 l -1.44,-0.385905 -1.44,-0.385905 -40.71068,-0.0087 -40.71067,-0.0087 -2.96933,0.406992 -2.96932,0.406991 v 9.87078 9.870779 l -0.64,-0.395541 -0.64,-0.395542 v -8.922229 -8.92223 h -1.03837 -1.03836 l 0.68035,-0.819771 0.68035,-0.819771 -6.97122,-0.190125 -6.97123,-0.190124 -3.550759,0.443639 -3.550762,0.443638 v 9.526257 9.526258 h -0.64 -0.64 v -9.259914 -9.259914 l -1.064989,0.408674 -1.064989,0.408675 0.414601,-0.670838 0.414601,-0.670839 -1.989612,-0.397922 -1.989612,-0.397923 -17.04,0.0087 -17.039999,0.0087 -1.44,0.385905 -1.44,0.385905 0,9.883127 0,9.883127 -0.64,-0.395541 -0.64,-0.395542 v -8.922229 -8.92223 h -1.038365 -1.038364 l 0.755724,-0.910591 0.755724,-0.910592 -1.47736,-0.282252 -1.477359,-0.282252 1.76,-0.08716 1.76,-0.08716 v -1.92 -1.92 h 0.64 0.64 v 1.259914 1.259914 l 1.071109,-0.411024 1.07111,-0.411023 -0.411023,1.07111 -0.411024,1.071109 20.459914,0 20.459913,0 v -1.92 -1.92 h 0.64 0.64 v 1.259914 l 0,1.259914 1.071109,-0.411024 1.07111,-0.411023 -0.411023,1.07111 -0.411024,1.071109 10.219909,0 10.21992,0 v -1.92 -1.92 h 0.64 0.64 v 1.259914 1.259914 l 1.07111,-0.411024 1.07111,-0.411023 -0.41103,1.07111 -0.41102,1.071109 45.29555,0 45.29556,0 -0.0356,-1.705246 -0.0356,-1.705246 0.8,-0.268087 0.8,-0.268088 v 1.013334 1.013333 h 0.70847 0.70847 l -0.36838,0.96 -0.36839,0.96 h 10.53991 10.53992 v -6.699914 -6.699914 l -0.96,0.368387 -0.96,0.368387 V 17.09757 16.299652 l -1.12,-0.850201 -1.12,-0.850201 2.08,-0.02035 2.08,-0.02035 v -1.92 -1.92 h 0.64 0.64 v 0.96 0.96 l 0.93991,0 0.93991,0 -0.36838,0.96 -0.36839,0.96 h 7.42847 7.42848 v -1.92 -1.92 h 0.64 0.64 v 1.259914 1.259913 l 1.0711,-0.411023 1.07111,-0.411023 -0.41102,1.071109 -0.41102,1.07111 h 1.29768 1.29769 l -0.43279,0.700269 -0.43279,0.700268 -1.52498,-0.291518 -1.52498,-0.291519 v 10.15125 10.15125 h -0.64 -0.64 v -9.259914 -9.259914 l -1.07111,0.411024 -1.07111,0.411023 0.41102,-1.071109 0.41102,-1.07111 -7.33991,0 -7.33991,0 v 6.699914 6.699914 l 1.07111,-0.411024 1.0711,-0.411023 -0.39572,1.031234 -0.39572,1.031235 1.40461,0.272718 1.40462,0.272719 -2.08,0.08716 -2.08,0.08716 v 6.72 6.720001 h 2.24 2.24 v 0.64 0.64 h -2.32802 -2.32801 l 0.43689,5.384384 0.43688,5.384384 z m 17.20691,-0.274824 h -0.64 v -2.24 -2.24 h 0.64 0.64 v 2.24 2.24 z m 0.0932,-6.877238 -0.64,0.64 -0.20662,-2.161381 -0.20661,-2.161381 -2.08,-0.20055 -2.08,-0.200549 v -0.636249 -0.63625 l 2.72,0.196799 2.72,0.196799 0.20661,2.161381 0.20662,2.161381 z m -11.61323,-4.002762 h -0.64 v -0.64 -0.64 h 0.64 0.64 v 0.64 0.64 z m 3.23777,0 h -1.95777 v -0.64 -0.64 h 1.56222 1.56223 l 0.39555,0.64 0.39554,0.64 z M 71.030289,28.638542 h -2.56 v -0.769531 -0.769532 l 2.025702,-2.089993 2.025701,-2.089994 -1.130293,-0.433734 -1.130293,-0.433734 -0.54061,0.874724 -0.540609,0.874725 -0.433864,-0.433864 -0.433863,-0.433863 0.395426,-1.030463 0.395426,-1.030464 1.699087,0.202862 1.699087,0.202861 0.683135,1.091237 0.683134,1.091236 -1.451847,1.545421 -1.451847,1.54542 1.313264,0.343427 1.313264,0.343426 v 0.699917 0.699916 z m 6.115599,-0.149704 -1.564401,0.129474 -0.995599,-0.995599 -0.995599,-0.995599 V 25.49202 24.356926 l 1.239672,-1.121887 1.239671,-1.121887 0.680329,0.420466 0.680328,0.420466 v -0.997771 -0.997771 h 0.64 0.64 v 3.700411 3.700411 z M 76.879557,26.983372 77.430289,26.643 v -1.242229 -1.242229 h -0.96 -0.96 v 1.173333 1.173334 l 0.409268,0.409267 0.409267,0.409267 z m 28.070733,1.65517 h -0.64 v -0.96 -0.96 h -1.6 -1.6 v -0.491434 -0.491434 l 1.62307,-2.388566 1.62307,-2.388566 h 0.60474 0.60473 l 0.39245,1.563625 0.39244,1.563626 -0.41802,0.676374 -0.41802,0.676375 h 0.58518 0.58519 l 0.59654,-2.08 0.59654,-2.08 h 1.89604 1.89605 v 3.130249 3.130248 l -1.1601,0.709752 -1.16009,0.709751 -1.09267,-1.329077 -1.09268,-1.329078 -0.78723,0.262411 -0.78723,0.262411 v 0.906667 0.906666 z m 5.20927,-1.65517 0.55073,-0.340372 v -2.202229 -2.202229 h -0.96 -0.96 v 2.133333 2.133334 l 0.40927,0.409267 0.40926,0.409267 z m -6.52704,-1.54483 h 0.67777 v -0.64 -0.64 h -0.28223 -0.28223 l -0.39554,0.64 -0.39554,0.64 z m 55.07777,3.2 h -0.64 v -2.56 -2.56 h -0.96 -0.96 v -0.409445 -0.409444 l 1.12,-0.850202 1.12,-0.850201 0.48,-0.02035 0.48,-0.02035 v 3.84 3.84 z m 3.84,0 h -0.64 v -0.96 -0.96 h 0.64 0.64 v 0.96 0.96 z m 3.88963,0 h -1.07363 l -0.768,-0.768 -0.768,-0.768 v -2.353635 -2.353636 l 0.92477,-0.767493 0.92477,-0.767494 1.4251,0.209129 1.4251,0.209129 0.27277,0.827915 0.27276,0.827914 -1.59281,-0.399772 -1.59282,-0.399772 -0.48871,0.790743 -0.4887,0.790743 0.72565,-0.448482 0.72566,-0.448482 1.29928,0.695351 1.29927,0.695352 0.63427,-1.668236 0.63426,-1.668235 1.74791,0.202481 1.74791,0.20248 0.58372,1.670123 0.58371,1.670124 -0.41342,1.64722 -0.41343,1.647221 -1.30922,0.415532 -1.30923,0.415532 -0.92929,-0.771241 -0.92928,-0.77124 -0.0742,-1.361635 -0.0742,-1.361636 -0.31463,1.28 -0.31463,1.28 -0.6495,0.8 -0.64949,0.8 z m 0.67963,-1.65517 0.55074,-0.340372 v -0.922229 -0.922229 h -0.96 -0.96 v 0.853333 0.853334 l 0.40926,0.409267 0.40927,0.409267 z m 5.45667,-0.621466 0.86007,-1.176219 -0.40251,-1.313573 -0.4025,-1.313572 -0.19792,-0.224087 -0.19791,-0.224086 -0.68258,0.421857 -0.68258,0.421858 v 1.189885 1.189885 l 0.42293,1.102136 0.42293,1.102135 z m 48.77942,2.276636 h -0.56535 v -0.96 -0.96 h -1.6 -1.6 v -0.73959 -0.73959 l 1.63257,-2.14041 1.63257,-2.14041 h 0.5402 0.54021 l 0.27206,2.72 0.27206,2.72 -0.27948,1.12 -0.27948,1.12 z m -1.18527,-3.2 h 0.61992 v -0.96 -0.96 h -0.25153 -0.25153 l -0.36839,0.96 -0.36838,0.96 z m 5.79576,3.2 h -1.17912 l -0.75966,-0.915335 -0.75966,-0.915336 0.2013,-2.379847 0.2013,-2.379848 1.12,-0.701543 1.12,-0.701544 1.12,0.70127 1.12,0.70127 0.19834,1.985885 0.19834,1.985885 -0.70086,1.309571 -0.70086,1.309572 z m 0.69348,-1.773324 0.63074,-0.630743 -0.21003,-1.788611 -0.21003,-1.78861 -0.74569,-0.244586 -0.74569,-0.244586 -0.40977,1.291055 -0.40977,1.291056 0.73475,1.372885 0.73475,1.372884 z m 13.97068,-14.226676 h -0.39536 l -1.1801,-0.86291 -1.1801,-0.862909 0.47476,-0.768168 0.47475,-0.7681679 0.87499,0.7261749 0.87499,0.726175 0.76498,-0.472789 0.76499,-0.4727896 -1.21695,-0.9357497 -1.21695,-0.9357496 0.8,-0.299892 0.8,-0.299892 v -0.59886 -0.59886 l -1.68345,0.4225169 -1.68344,0.4225168 0.28154,-0.8446001 0.28153,-0.8446002 1.08191,-0.6824499 1.08191,-0.6824499 1.12,0.7053098 1.12,0.7053099 0.16376,2.8114167 0.16376,2.8114169 -1.08608,0.8 -1.08609,0.8 z m 5.3576,0 h -0.6216 l -0.768,-0.768 -0.768,-0.768 V 8.4785418 5.8545417 l 0.768,-0.768 0.768,-0.768 0.78628,0 h 0.78629 l 1.00571,1.0057143 1.00572,1.0057143 v 2.0950937 2.095094 l -1.1704,1.059192 -1.17039,1.059192 z m 0.0824,-1.92 h 0.96 V 8.4785418 6.2385417 h -0.96 -0.96 v 2.2400001 2.2400002 z"
     id="path2" /><g
     inkscape:groupmode="layer"
     inkscape:label="Image"
     id="g1"></g></svg>
