<?xml version="1.0" encoding="UTF-8" standalone="no"?>
<!-- Created with Inkscape (http://www.inkscape.org/) -->

<svg
   version="1.1"
   id="svg1"
   width="855.03998"
   height="179.2"
   viewBox="0 0 855.03998 179.2"
   sodipodi:docname="slab-between-beams.svg"
   inkscape:version="1.4 (e7c3feb1, 2024-10-09)"
   xmlns:inkscape="http://www.inkscape.org/namespaces/inkscape"
   xmlns:sodipodi="http://sodipodi.sourceforge.net/DTD/sodipodi-0.dtd"
   xmlns="http://www.w3.org/2000/svg"
   xmlns:svg="http://www.w3.org/2000/svg">
  <defs
     id="defs1" />
  <sodipodi:namedview
     id="namedview1"
     pagecolor="#ffffff"
     bordercolor="#000000"
     borderopacity="0.25"
     inkscape:showpageshadow="2"
     inkscape:pageopacity="0.0"
     inkscape:pagecheckerboard="0"
     inkscape:deskcolor="#d1d1d1"
     inkscape:zoom="1.99187"
     inkscape:cx="264.07346"
     inkscape:cy="82.08367"
     inkscape:window-width="1344"
     inkscape:window-height="542"
     inkscape:window-x="0"
     inkscape:window-y="44"
     inkscape:window-maximized="0"
     inkscape:current-layer="g1" />
  <g
     inkscape:groupmode="layer"
     inkscape:label="Image"
     id="g1">
    <path
       style="fill:#000000"
       d="m 64.252538,178.96274 c 1.106897,-0.0627 2.834897,-0.0621 3.84,0.001 1.005103,0.0633 0.09946,0.11458 -2.01254,0.11394 l -3.84,-0.001 z m 17.610639,-0.003 c 5.688748,-0.049 14.904747,-0.0489 20.480003,7e-5 5.57525,0.049 0.92082,0.0891 -10.343182,0.0891 -11.264,-4e-5 -15.82557,-0.0402 -10.136821,-0.0891 z M 113.36,178.9708 c 0.484,-0.0733 1.276,-0.0733 1.76,0 l 0.88,0.1333 h -1.76 -1.76 z m 5.3,0.0106 c 0.231,-0.0924 0.507,-0.0811 0.61333,0.0253 0.10633,0.10634 -0.0827,0.18197 -0.42,0.16807 l -0.61333,-0.0253 z m 8.95519,-0.0197 c 1.46036,-0.0594 3.76436,-0.0591 5.12,7.3e-4 1.35564,0.0598 0.16081,0.10846 -2.65519,0.10805 -2.816,-4e-4 -3.92517,-0.0494 -2.46481,-0.10878 z m 9.43446,0.003 c 0.84131,-0.0661 2.13731,-0.0653 2.88,0.002 0.74269,0.0671 0.0543,0.12123 -1.52965,0.12025 l -2.88,-0.002 z m 18.39035,-0.004 c 6.908,-0.0481 18.212,-0.0481 25.12,0 6.908,0.0481 1.256,0.0875 -12.56,0.0875 -13.816,0 -19.468,-0.0394 -12.56,-0.0875 z m 48.34327,1e-5 c 5.8648,-0.0488 15.3688,-0.0488 21.12,6e-5 5.7512,0.0489 0.95272,0.0888 -10.66328,0.0888 -11.616,-4e-5 -16.32152,-0.04 -10.45672,-0.0889 z m 32.46112,0.0103 c 0.48642,-0.0736 1.20642,-0.0716 1.6,0.004 0.39358,0.076 -0.004,0.13613 -0.8844,0.13373 l -1.6,-0.004 z m 4.9556,0.0177 c 0.22,-0.0888 0.58,-0.0888 0.8,0 l 0.4,0.1614 h -0.8 -0.8 z m 7.06,-0.007 c 0.231,-0.0924 0.507,-0.0811 0.61334,0.0253 0.10633,0.10634 -0.0827,0.18197 -0.42,0.16807 l -0.61334,-0.0253 z m 2.7,-0.0166 c 0.836,-0.0659 2.204,-0.0659 3.04,0 0.836,0.0659 0.152,0.11986 -1.52,0.11986 -1.672,0 -2.356,-0.0539 -1.52,-0.11986 z m 4.98,0.0166 c 0.231,-0.0924 0.507,-0.0811 0.61334,0.0253 0.10633,0.10634 -0.0827,0.18197 -0.42,0.16807 l -0.61334,-0.0253 z m 6.08,0 c 0.231,-0.0924 0.507,-0.0811 0.61334,0.0253 0.10633,0.10634 -0.0827,0.18197 -0.42,0.16807 l -0.61334,-0.0253 z m 6.55169,-0.0182 c 1.01842,-0.0637 2.60242,-0.0631 3.52,0.001 0.91757,0.0644 0.0843,0.11654 -1.85169,0.11582 l -3.52,-0.001 z m 6.22831,0.0249 c 0.22,-0.0888 0.58,-0.0888 0.8,0 l 0.4,0.1614 h -0.8 -0.8 z m 11.22308,-0.0279 c 5.51269,-0.0491 14.44069,-0.0491 19.84,7e-5 5.39931,0.0492 0.88892,0.0894 -10.02308,0.0893 -10.912,-4e-5 -15.32961,-0.0403 -9.81692,-0.0894 z m 39.49692,1.1e-4 c 4.532,-0.0501 11.948,-0.0501 16.48,0 4.532,0.0501 0.824,0.091 -8.24,0.091 -9.064,0 -12.772,-0.041 -8.24,-0.091 z m 25.44,0.0139 c 0.396,-0.0763 1.044,-0.0763 1.44,0 l 0.72,0.13868 h -1.44 -1.44 z m 3.20573,-0.006 c 0.57515,-0.0712 1.43915,-0.0697 1.92,0.003 0.48085,0.073 0.0103,0.13128 -1.04573,0.12949 l -1.92,-0.003 z m 21.75427,0.02 c 0.22,-0.0888 0.58,-0.0888 0.8,0 l 0.4,0.1614 h -0.8 -0.8 z m 19.54,-0.007 c 0.231,-0.0924 0.507,-0.0811 0.61333,0.0253 0.10634,0.10634 -0.0827,0.18197 -0.42,0.16807 l -0.61333,-0.0253 z m 13.42,-0.0212 c 5.5,-0.0491 14.5,-0.0491 20,0 5.5,0.0491 1,0.0893 -10,0.0893 -11,0 -15.5,-0.0402 -10,-0.0893 z m 37.92,9e-5 c 4.356,-0.0503 11.484,-0.0503 15.84,0 4.356,0.0503 0.792,0.0914 -7.92,0.0914 -8.712,0 -12.276,-0.0412 -7.92,-0.0914 z m 87.52,-4e-5 c 4.796,-0.0498 12.644,-0.0498 17.44,0 4.796,0.0498 0.872,0.0905 -8.72,0.0905 -9.592,0 -13.516,-0.0407 -8.72,-0.0905 z m 37.44,3e-5 c 4.444,-0.0502 11.716,-0.0502 16.15999,0 4.444,0.0502 0.808,0.0912 -8.07999,0.0912 -8.888,0 -12.524,-0.0411 -8.08,-0.0912 z m 25.91999,0.0278 c 0.22,-0.0888 0.58,-0.0888 0.8,0 l 0.4,0.1614 h -0.8 -0.8 z m 2.08,-0.0173 c 0.484,-0.0733 1.276,-0.0733 1.76,0 l 0.88,0.1333 h -1.76 -1.76 z m 55.52,-0.0106 c 5.148,-0.0494 13.572,-0.0494 18.72,0 5.148,0.0494 0.936,0.0899 -9.36,0.0899 -10.296,0 -14.508,-0.0404 -9.36,-0.0899 z m 32,0.014 c 0.396,-0.0763 1.044,-0.0763 1.44,0 l 0.72,0.13868 h -1.44 -1.44 z m 2.58,0.007 c 0.231,-0.0924 0.507,-0.0811 0.61334,0.0253 0.10633,0.10634 -0.0827,0.18197 -0.42,0.16807 l -0.61334,-0.0253 z m 2.38,-0.0145 c 0.66,-0.069 1.74,-0.069 2.4,0 l 1.2,0.12552 h -2.4 -2.4 z m 6.08,-0.005 c 1.364,-0.06 3.596,-0.06 4.96,0 1.364,0.06 0.248,0.10906 -2.48,0.10906 -2.728,0 -3.844,-0.0491 -2.48,-0.10906 z m 11.04,2.5e-4 c 1.276,-0.0607 3.364,-0.0607 4.64,0 1.276,0.0607 0.232,0.11044 -2.32,0.11044 -2.552,0 -3.596,-0.0497 -2.32,-0.11044 z m 67.01869,-0.002 c 3.46428,-0.0516 9.22428,-0.0517 12.8,-1.6e-4 3.57572,0.0515 0.74131,0.0938 -6.29869,0.0939 -7.04,9e-5 -9.96559,-0.0421 -6.50131,-0.0937 z m 44.04131,0.0209 c 0.231,-0.0924 0.507,-0.0811 0.61333,0.0253 0.10634,0.10634 -0.0827,0.18197 -0.42,0.16807 l -0.61333,-0.0253 z m 4.62,-0.0145 c 0.66,-0.069 1.74,-0.069 2.4,0 l 1.2,0.12552 h -2.4 -2.4 z M 15.912862,177.68904 c 0.568075,-0.0707 1.576075,-0.0719 2.24,-0.003 l 1.207138,0.12595 -2.24,0.003 c -1.232,0.001 -1.775212,-0.0553 -1.207138,-0.12595 z m 10.087137,-0.008 c 2.42,-0.0544 6.38,-0.0544 8.8,0 2.42,0.0544 0.44,0.0988 -4.4,0.0988 -4.84,0 -6.82,-0.0445 -4.4,-0.0988 z M 241.35999,177.68 c 103.972,-0.0443 274.108,-0.0443 378.07999,0 103.972,0.0443 18.904,0.0805 -189.03999,0.0805 -207.944,0 -293.01199,-0.0362 -189.04,-0.0805 z m 574.58193,2.4e-4 c 4.10407,-0.0507 10.72807,-0.0506 14.72,1.2e-4 3.99193,0.0507 0.63406,0.0922 -7.46194,0.0921 -8.096,-6e-5 -11.36213,-0.0416 -7.25806,-0.0923 z M 23.359999,162.24 v -2.88 h -0.255056 c -0.140281,0 -0.817506,0.576 -1.504944,1.28 l -1.249886,1.28 H 19.775056 19.2 v -0.50634 c 0,-0.27849 0.741295,-1.25049 1.647322,-2.16 L 22.494644,157.6 19.487322,157.43637 c -1.654027,-0.09 -3.189671,-0.27995 -3.412542,-0.42211 l -0.40522,-0.25849 0.21208,-0.34315 0.212079,-0.34315 3.445463,0.20926 3.445463,0.20927 0.176617,-2.324 c 0.318866,-4.19576 0.484284,-19.28115 0.288842,-26.34098 l -0.191629,-6.92205 -0.296932,0.53059 c -0.517868,0.92538 -2.619525,2.71078 -3.201544,2.71978 -0.829981,0.0128 -0.689757,-0.52883 0.587254,-2.26847 L 21.494507,120.32 h -2.241082 c -1.232595,0 -2.468859,-0.0874 -2.747253,-0.19424 L 16,119.93153 v -0.5803 l 0,-0.58029 2.099734,-0.22486 c 1.154854,-0.12368 2.721966,-0.15473 3.482472,-0.069 l 1.382737,0.15585 0.197528,-1.44112 c 0.108641,-0.79262 0.197528,-4.92557 0.197528,-9.18434 0,-4.25876 0.09537,-12.093619 0.211941,-17.410785 l 0.21194,-9.667576 0.66806,0.09545 0.668059,0.09545 v 17.680118 17.680123 l 0.273806,-1.2e-4 c 0.150594,-7e-5 0.701642,-0.36012 1.224553,-0.80012 1.088189,-0.91565 1.797456,-1.01961 2.072169,-0.30372 l 0.190441,0.49628 -0.760484,0.81334 c -0.418267,0.44734 -1.192485,0.9915 -1.720485,1.20925 l -0.96,0.3959 2.72,0.23067 2.72,0.23067 76.690061,-0.22719 76.69006,-0.22719 0.1435,-2.90901 c 0.0789,-1.59995 0.16264,-9.965 0.18605,-18.589002 l 0.0426,-15.679999 h 0.56388 0.56389 l 0.0827,17.679999 0.0827,17.680002 0.23729,-0.009 c 0.13051,-0.005 0.80295,-0.4369 1.4943,-0.96 2.34682,-1.7757 2.89788,-0.87806 0.83185,1.35499 l -1.27115,1.37391 2.72829,0.16885 2.72829,0.16885 0.28953,0.46848 0.28953,0.46847 -0.32267,0.32267 -0.32267,0.32268 h -3.184 -3.184 l -0.0379,2.72 c -0.0208,1.496 -0.13023,3.152 -0.24314,3.68 l -0.20528,0.96 h -0.61889 -0.61889 l 0.0844,-1.8217 c 0.0464,-1.00193 -0.009,-2.44723 -0.12408,-3.21179 l -0.20846,-1.39009 -1.37178,1.37179 -1.37179,1.37179 h -0.54367 -0.54367 l 0.214,-0.72 c 0.1177,-0.396 0.62107,-1.2387 1.11859,-1.87266 l 0.9046,-1.15265 -78.50226,-0.0633 -78.502263,-0.0633 -0.18767,5.21596 c -0.103219,2.86878 -0.247442,10.64184 -0.320497,17.27348 l -0.132827,12.05753 0.761241,-0.34685 c 0.418682,-0.19076 0.98258,-0.68465 1.253105,-1.09752 L 27.534753,152.32 h 0.632623 0.632623 v 0.48715 c 0,0.26793 -0.593736,1.13127 -1.319413,1.91854 l -1.319413,1.4314 400.469697,-3e-5 400.46969,-2e-5 0.20854,-4.55852 c 0.2698,-5.8977 0.27034,-21.11212 9.3e-4,-26.12264 l -0.20995,-3.9046 -1.00528,0.97436 c -0.55291,0.5359 -1.25043,0.97436 -1.55006,0.97436 h -0.54476 v -0.62874 -0.62874 l 0.64,-0.34252 c 0.352,-0.18839 0.64,-0.55345 0.64,-0.81126 0,-0.25781 0.18,-0.47886 0.4,-0.49123 l 0.4,-0.0225 -0.57987,-0.22867 -0.57988,-0.22867 -78.38012,-0.0959 -78.38013,-0.0959 -0.005,3.62703 -0.005,3.62704 -0.29071,0.45942 -0.29071,0.45942 -0.5162,-0.42841 c -0.28392,-0.23562 -0.49431,-0.65836 -0.46754,-0.93942 0.0268,-0.28106 0.0286,-1.66301 0.004,-3.07101 l -0.0447,-2.56 -1.461,1.68 c -1.23416,1.41915 -2.36339,2.14237 -2.36339,1.51364 0,-0.29758 1.66157,-2.85443 2.33532,-3.59364 l 0.65624,-0.72 -3.09578,0 -3.09578,0 v -0.60215 -0.60215 l 2.64,-0.19135 c 1.452,-0.10524 3,-0.15827 3.44,-0.11785 l 0.8,0.0735 0.16,-18.613567 c 0.16045,-18.665792 0.1933,-19.226323 1.1062,-18.87601 l 0.4938,0.189489 V 99.189955 117.12 l 0.28236,0 c 0.15529,0 0.88122,-0.59887 1.61317,-1.33083 l 1.33083,-1.33082 0.3474,0.3474 0.34739,0.3474 -0.69646,1.1269 c -0.38305,0.6198 -0.98524,1.21856 -1.33819,1.33058 l -0.64173,0.20368 0.12458,0.37284 0.12457,0.37285 78.69304,-0.12057 c 43.28117,-0.0663 78.76504,-0.18628 78.85304,-0.26658 0.088,-0.0803 0.21044,-8.40103 0.27209,-18.490503 l 0.1121,-18.34449 0.60759,-0.158888 c 0.90621,-0.23698 0.86589,-0.994447 0.96366,18.105282 0.0502,9.809659 0.15467,17.835749 0.23214,17.835749 0.0775,0 0.76573,-0.576 1.52948,-1.28 1.57124,-1.44832 2.04294,-1.58465 2.04294,-0.59045 l 0,0.68954 -1.28037,1.21799 -1.28038,1.21799 2.80038,0.0925 2.80037,0.0925 0.10225,0.72 0.10226,0.72 h -3.33031 -3.33032 l -0.21194,12.05237 c -0.11657,6.6288 -0.21194,14.3328 -0.21194,17.12 V 154.24 l 0.27398,0 c 0.15069,0 0.93405,-0.504 1.7408,-1.12 1.52875,-1.16729 1.97945,-1.32711 2.29637,-0.81432 l 0.18893,0.30569 -1.68681,1.69431 -1.68682,1.69432 2.95678,0.092 2.95677,0.092 v 0.628 0.62799 h -3.36 -3.36 v 3.84 3.84 h -0.96 -0.96 l -0.0507,-2.32 c -0.0279,-1.276 -0.0296,-2.572 -0.004,-2.88 0.0684,-0.81584 -0.31095,-0.69642 -1.77879,0.56 -2.31001,1.97728 -2.84377,1.05378 -0.72161,-1.24849 l 1.28512,-1.39419 -0.72512,-0.19378 c -0.39882,-0.10658 -180.38991,-0.19619 -399.9802,-0.19914 -219.59029,-0.003 -399.48229,-0.0926 -399.759991,-0.19912 l -0.50491,-0.19376 v 4.03424 4.03424 h -0.96 -0.96 z M 422.53911,145.12874 422.52097,138.24 h 0.89951 0.89951 v 5.9088 5.90881 l 3.28,0.0912 3.28,0.0912 v 0.8 0.8 l -4.16137,0.0887 -4.16138,0.0887 z M 93.378883,113.68 c -0.05439,-0.132 -0.0571,-3.156 -0.006,-6.72 l 0.09285,-6.48 h 0.947152 0.947152 v 5.89001 5.89002 l 3.119999,0.13095 c 1.716003,0.072 3.354353,0.23816 3.640783,0.36918 l 0.52079,0.23822 0.22611,-1.21919 c 0.12436,-0.67056 0.65576,-2.65919 1.18089,-4.41919 0.52513,-1.76 1.17489,-3.992 1.4439,-4.96 0.45814,-1.64853 0.84475,-2.2234 1.50314,-2.2351 l 0.27561,-0.005 -0.21814,1.2 c -0.29591,1.6278 -1.37978,5.60575 -2.12291,7.79136 -0.335,0.98525 -0.7009,2.46124 -0.81312,3.28 l -0.20404,1.48864 h -5.217623 -5.217619 z m 15.991967,-0.31605 c -0.47804,-0.29646 -1.04256,-0.95766 -1.2545,-1.46932 l -0.38534,-0.93031 0.31735,-0.50311 c 0.17455,-0.27672 0.46927,-0.55376 0.65494,-0.61565 l 0.33757,-0.11252 0.67168,1.1384 0.67167,1.1384 0.82872,0.31508 c 0.4558,0.17329 1.11389,0.31508 1.46243,0.31508 h 0.63372 l 0.78545,-0.78546 0.78546,-0.78545 v -1.57139 -1.57139 l -0.66323,-0.84316 -0.66322,-0.84315 h -0.95782 c -0.99978,0 -2.04122,0.43977 -2.77199,1.17054 -0.54638,0.54638 -1.1673,0.54764 -1.61909,0.003 l -0.3537,-0.42619 0.63452,-2.28976 c 0.34899,-1.25937 0.63453,-2.72845 0.63453,-3.26464 v -0.97487 l 3.44,0.0908 3.44,0.0908 v 0.8 0.8 l -2.71578,0.16 -2.71579,0.16 -0.18768,1.16212 -0.18769,1.16213 1.95746,-0.0421 1.95747,-0.0421 0.88029,0.57673 c 1.09261,0.71585 1.49172,1.72567 1.49172,3.77438 v 1.58944 l -0.45479,1.08847 -0.4548,1.08847 -0.96931,0.50125 -0.96932,0.50126 -1.69589,-0.009 -1.69589,-0.009 z M 736.43459,112.72 c 0.10909,-0.66 0.19993,-3.684 0.20187,-6.72 l 0.004,-5.52 h 0.8 0.8 v 5.92 5.92 h 3.97109 3.97109 l 0.38582,-2.32 c 0.21221,-1.276 0.57349,-2.896 0.80285,-3.6 0.22937,-0.704 0.72285,-2.324 1.09664,-3.6 l 0.67961,-2.32 h 0.48095 0.48095 l -0.19607,1.2 c -0.40338,2.46889 -0.57408,3.17714 -1.31137,5.44121 -0.41574,1.27667 -0.92227,3.32867 -1.12562,4.56 l -0.36973,2.23879 h -5.43497 -5.43498 z m 16.05653,0.20685 -1.13114,-0.99315 V 111.00685 110.08 h 0.36122 c 0.19867,0 0.91908,0.504 1.60092,1.12 l 1.2397,1.12 h 1.10662 1.10661 l 0.65246,-0.70034 0.65247,-0.70034 v -1.67644 -1.67643 l -0.859,-0.67569 -0.85901,-0.67569 -0.98099,0.21259 c -0.53955,0.11693 -1.5144,0.51794 -2.16633,0.89114 l -1.18532,0.67855 -0.33867,-0.33867 -0.33867,-0.33867 0.65241,-2.62129 c 0.35882,-1.44171 0.78905,-2.98072 0.95607,-3.42001 l 0.30367,-0.79871 2.32792,0.0319 c 1.28036,0.0175 2.68792,0.13144 3.12792,0.25311 l 0.8,0.22122 0.10197,0.70466 0.10196,0.70466 -2.41346,-0.20401 -2.41347,-0.20402 -0.4885,0.40542 -0.4885,0.40542 v 1.08082 1.08082 h 2.08 2.08 l 0.65278,0.65278 c 1.28126,1.28126 1.61261,3.51954 0.84916,5.73614 l -0.38194,1.10892 -1.08732,0.73108 -1.08732,0.73108 h -1.70155 -1.70154 z M 94.971265,78.2246 c -0.09647,-0.09647 -0.05648,-0.70847 0.08886,-1.36 0.145344,-0.651531 0.504257,-2.264601 0.797584,-3.584601 l 0.533322,-2.4 1.244481,-2.099236 c 0.684465,-1.15458 1.244481,-2.193176 1.244481,-2.307992 0,-0.114816 -1.332,-0.250159 -2.959999,-0.300764 l -2.96,-0.09201 -0.09893,-1.021953 -0.09893,-1.021952 4.211492,-0.09805 c 2.31632,-0.05393 4.366398,-0.0018 4.555718,0.115938 l 0.34423,0.213984 -1.94149,3.788888 c -2.148647,4.193163 -2.972092,6.577807 -2.972092,8.606987 v 1.347683 l -0.506172,0.194236 c -0.629288,0.241481 -1.252006,0.249393 -1.482561,0.01884 z m 15.494865,-0.366334 -1.05388,-0.511641 -0.81092,-1.383745 -0.81093,-1.383744 0.20368,-0.329568 c 0.3448,-0.557887 0.83868,-0.374441 2.12805,0.790431 l 1.23971,1.12 h 1.09585 1.09586 l 0.66322,-0.843155 0.66323,-0.843155 v -0.896013 c 0,-2.244124 -0.80059,-3.165498 -2.75685,-3.172777 l -1.31684,-0.0049 -0.81363,0.64 c -1.59414,1.253949 -1.90888,0.637997 -1.30811,-2.56 0.21491,-1.144 0.48287,-2.638866 0.59545,-3.321924 l 0.20471,-1.241925 1.65763,0.199143 c 0.9117,0.109529 2.4232,0.200395 3.35889,0.201924 l 1.70126,0.0028 -0.10126,0.88 -0.10125,0.88 -2.50686,0.02457 -2.50686,0.02457 -0.28824,0.455425 c -0.15853,0.250484 -0.29045,0.762117 -0.29314,1.136964 l -0.005,0.681539 1.93537,0.139992 1.93538,0.139993 1.00885,1.008843 1.00884,1.008844 0.12381,2.009625 0.12381,2.009625 -0.74912,1.102699 c -0.78156,1.150458 -2.10365,2.051976 -3.46694,2.364068 l -0.8,0.18314 z m -6.5728,0.0084 C 103.776,77.749332 103.68,77.317332 103.68,76.906665 v -0.746666 h 1.12 1.12 v 0.765763 0.765764 l -0.50617,0.194236 c -0.66181,0.25396 -1.25489,0.246511 -1.5205,-0.0191 z m 634.02746,-0.346666 c 4.4e-4,-0.308 0.36507,-1.928 0.81028,-3.6 l 0.80947,-3.04 1.06074,-1.76 c 0.58341,-0.968 1.15026,-2.012 1.25968,-2.32 l 0.19893,-0.56 h -3.01107 c -3.26613,0 -3.392,-0.05455 -3.1421,-1.361823 l 0.16787,-0.878177 h 4.29274 4.29274 l 0.18544,0.483266 0.18545,0.483265 -0.83618,1.096289 c -0.4599,0.602959 -1.47534,2.409505 -2.25653,4.014548 l -1.42034,2.918258 -0.36633,1.822187 c -0.20148,1.002203 -0.42875,2.146187 -0.50506,2.542187 l -0.13873,0.72 h -0.79391 -0.7939 z m 8.75491,0.08 c -0.10131,-0.264 -0.10131,-0.696 0,-0.96 l 0.18419,-0.48 h 0.82009 0.82009 l 0.18575,0.484075 0.18576,0.484075 -0.39498,0.475925 c -0.21724,0.261759 -0.66987,0.475925 -1.00584,0.475925 h -0.61087 z m 6.14707,-0.597785 -1.14279,-1.077785 v -0.82333 c 0,-1.148803 0.39096,-1.269729 1.31999,-0.408281 1.0494,0.973054 2.00369,1.467181 2.83352,1.467181 h 0.67558 l 0.78546,-0.785455 0.78545,-0.785454 v -1.56495 -1.564949 l -0.5852,-0.529596 -0.58519,-0.529596 h -0.9578 c -0.52679,0 -1.63926,0.232195 -2.47215,0.51599 -1.95297,0.665445 -1.90008,0.805521 -1.26855,-3.359143 l 0.54261,-3.578317 3.22314,0.210202 c 1.77273,0.11561 3.3639,0.340404 3.53595,0.499542 l 0.31281,0.289341 -0.34783,0.551192 -0.34783,0.551193 h -2.20498 c -1.21274,0 -2.38498,0.116498 -2.60498,0.258885 l -0.4,0.258886 v 1.129242 1.129241 l 1.23938,-0.209392 1.23939,-0.209392 1.08061,0.4571 c 0.59434,0.251405 1.36862,0.780185 1.72062,1.175067 l 0.64,0.717968 -0.0173,2.148725 -0.0173,2.148724 -0.75029,1.053677 -0.75028,1.053678 -1.06215,0.443795 c -0.58419,0.244088 -1.56053,0.443796 -2.16965,0.443796 h -1.10749 z M 154.80755,60.14944 154.72,54.698882 153.6,55.656435 c -0.616,0.526655 -1.372,0.963406 -1.68,0.970559 l -0.56,0.013 v -0.44685 c 0,-0.245768 0.54,-0.909134 1.2,-1.474147 0.66,-0.565013 1.74486,-1.51593 2.41081,-2.11315 0.66595,-0.597219 1.34995,-1.085853 1.52,-1.085853 H 156.8 v 6.845764 6.845763 l -0.50618,0.194236 c -0.27839,0.10683 -0.70699,0.194237 -0.95244,0.194237 h -0.44627 z m 542.77149,5.210559 c -0.0115,-0.132 -0.003,-2.58 0.0194,-5.44 l 0.0403,-5.2 h -0.28362 c -0.156,0 -0.63273,0.375278 -1.05941,0.833952 -0.42668,0.458673 -1.12323,0.968024 -1.54789,1.131891 l -0.77211,0.29794 -0.30716,-0.307164 -0.30716,-0.307164 0.77486,-0.744728 c 0.42618,-0.4096 1.34385,-1.26933 2.03927,-1.910512 0.69543,-0.641182 1.45009,-1.397182 1.67703,-1.68 0.22694,-0.282818 0.55094,-0.514215 0.72,-0.514215 h 0.30738 l 0.0461,3.44 c 0.0254,1.892 0.0743,4.716115 0.10878,6.275811 0.0344,1.559696 -0.003,3.179695 -0.0834,3.6 l -0.14609,0.764189 h -0.60269 c -0.33149,0 -0.61212,-0.108 -0.62364,-0.24 z M 22.799999,64.108069 c -0.22,-0.08877 -0.4,-0.361803 -0.4,-0.606737 v -0.445333 l -0.96,0.192 -0.96,0.192 V 62.82116 c 0,-0.755046 0.516793,-1.410551 1.68,-2.130928 l 0.88,-0.544987 v -2.659158 -2.659158 l -4.224734,4.266535 -4.224735,4.266535 H 13.855265 13.12 V 62.709334 62.05867 l 5.744365,-5.749336 c 3.159401,-3.162134 5.895401,-5.749335 6.08,-5.749335 0.184599,0 0.335634,-0.216 0.335634,-0.48 v -0.48 h -1.12 -1.12 v -1.12 -1.12 h -0.281452 c -0.154798,0 -0.820167,0.684 -1.478596,1.52 -0.65843,0.836 -2.583776,2.849007 -4.278548,4.473349 L 13.92,56.306697 l -0.56,0.0067 -0.56,0.0067 v -0.648538 -0.648538 l 3.867317,-4.146208 c 2.127024,-2.280415 4.431024,-4.592673 5.12,-5.138352 l 1.252682,-0.992143 v -2.570053 -2.570053 l -4.673813,4.532338 -4.673814,4.532338 -0.366186,-0.121913 c -0.201402,-0.06705 -0.410562,-0.350646 -0.4648,-0.630209 l -0.09861,-0.508298 2.498613,-2.672954 c 1.374238,-1.470124 4.172548,-4.253458 6.218469,-6.185185 2.04592,-1.931727 3.73792,-3.692232 3.76,-3.912232 l 0.04014,-0.4 h -1.12 -1.12 l -0.01065,-1.36 -0.01065,-1.36 -0.640642,0.8 c -0.352353,0.44 -2.390664,2.564 -4.529579,4.72 l -3.888938,3.92 H 13.379774 12.8 v -0.674105 -0.674106 l 2.32,-2.417237 c 1.276,-1.329481 3.58,-3.651093 5.119999,-5.159138 l 2.8,-2.7419 V 26.61648 23.939447 l -1.135261,1.390276 c -0.624394,0.764652 -2.676394,2.864133 -4.56,4.665512 L 13.92,33.270471 l -0.594691,0.0048 -0.59469,0.0048 0.213655,-0.88 0.213656,-0.88 3.232895,-3.2575 c 1.778092,-1.791626 3.994566,-3.879626 4.925497,-4.64 L 23.008924,22.24 l 0.01554,-2.812546 0.01554,-2.812546 -4.423082,4.492546 -4.423083,4.492546 -0.696917,0 H 12.8 l 0,-0.431988 c 0,-0.748322 1.73603,-2.814955 5.282107,-6.288012 1.886854,-1.848 3.828789,-3.972622 4.315412,-4.721381 l 0.88477,-1.361382 42.827383,-0.0067 42.827388,-0.0067 -0.093,1.288035 -0.093,1.288036 0.26447,-0.0049 c 0.14546,-0.0027 0.46315,-0.130742 0.70599,-0.284548 l 0.44152,-0.279648 -0.1461,-0.995452 -0.1461,-0.995452 156.89988,0 156.89987,0 -1.09058,-1.04 c -0.59982,-0.572 -1.178,-1.346947 -1.28484,-1.722104 l -0.19425,-0.6821044 0.49678,-0.1906345 0.49679,-0.1906344 1.74602,1.8327383 1.74602,1.832739 0.007,-3.2800002 0.007,-3.2799999 h 0.64 0.64 V 9.4399998 12.8 l 201.40576,0 201.40576,0 0.15956,0.415806 c 0.0877,0.228693 0.0587,1.390066 -0.0645,2.58083 l -0.22409,2.165024 0.65876,0.888637 c 0.36232,0.488751 2.64162,2.819377 5.0651,5.17917 l 4.40633,4.290533 -0.006,0.88 c -0.0115,1.598823 -0.75796,1.077504 -6.32633,-4.418261 l -3.6,-3.55306 0.0223,2.74566 0.0223,2.745661 4.93771,4.633069 4.93771,4.633069 v 0.886931 0.88693 l -0.30154,0 c -0.28704,0 -5.60767,-4.767699 -9.23728,-8.277335 L 828.44234,27.84 l -0.78118,0 -0.78118,0 v -6.078223 l 0,-6.078222 -198.96,-0.08178 c -109.42799,-0.04498 -198.99949,-0.06628 -199.04776,-0.04734 -0.0483,0.01894 0.35971,0.471927 0.90663,1.006641 l 0.99439,0.972206 -0.10662,0.753359 -0.10663,0.753359 -0.64,0.08051 -0.64,0.08051 -1.12,-1.659129 -1.12,-1.659129 -0.084,11.78796 c -0.0462,6.483378 0.002,11.873756 0.10663,11.978619 0.10485,0.104863 55.29464,0.271202 122.64399,0.369643 l 122.45336,0.178982 1.44,0.367336 c 0.792,0.202035 4.104,0.671165 7.36,1.042511 3.256,0.371346 7.936,1.015539 10.4,1.43154 2.464,0.416001 6.424,0.921644 8.8,1.12365 2.376,0.202006 6.35776,0.709212 8.84834,1.127124 2.49059,0.417912 6.66659,0.99007 9.28,1.271462 2.61342,0.281393 6.83966,0.858101 9.39166,1.281574 2.552,0.423473 6.872,0.999708 9.6,1.280522 2.728,0.280814 7.12,0.858784 9.76,1.284379 2.64,0.425594 7.0595,0.995399 9.82111,1.266233 2.76161,0.270834 6.43361,0.783866 8.16,1.140072 1.72639,0.356206 5.22689,0.861236 7.77889,1.122289 2.552,0.261053 7.376,0.894807 10.72,1.408343 3.344,0.513536 7.088,1.026752 8.32,1.14048 1.232,0.113727 4.904,0.617673 8.16,1.11988 3.256,0.502207 8.008,1.14294 10.56,1.423851 6.44704,0.709659 11.29991,1.391694 13.82317,1.942745 1.17874,0.257424 2.22274,0.468044 2.32,0.468044 0.0973,0 0.17683,-7.287611 0.17683,-16.19469 V 29.050618 l 0.87821,0.220417 c 0.48301,0.121229 1.05901,0.370472 1.28,0.553873 l 0.40179,0.333456 v 1.554528 1.554528 l 5.04,5.157979 5.04,5.157979 0.10225,0.608311 0.10226,0.60831 -0.81796,0 -0.81795,0 -3.91454,-3.84 c -2.153,-2.112 -4.02693,-3.84 -4.1643,-3.84 l -0.24976,0 v 2.226467 l 0,2.226466 4.96,4.90123 4.96,4.901229 v 0.712304 0.712304 l -0.5077,0 c -0.49264,0 -2.28848,-1.575095 -7.0923,-6.220492 l -2.32,-2.24349 v 2.428037 2.428037 l 4.96,4.806604 4.96,4.806605 0,0.658464 c 0,0.362155 -0.15033,0.751375 -0.33407,0.864932 l -0.33408,0.206468 -0.70592,-0.476041 c -0.38826,-0.261822 -2.46993,-2.183778 -4.62593,-4.271013 l -3.92,-3.794972 0.0145,2.563431 0.0145,2.56343 2.70551,2.329583 2.70551,2.329583 V 62.3704 c 0,0.325179 -0.22041,0.774155 -0.48979,0.997725 l -0.48979,0.406491 -2.15021,-2.184893 -2.15021,-2.184894 -0.16,2.377585 -0.16,2.377585 -2.4,-0.104921 c -2.77354,-0.12125 -7.06172,-0.663111 -14.08,-1.779174 -2.728,-0.433813 -6.688,-0.946989 -8.8,-1.140392 -2.112,-0.193403 -4.07234,-0.423476 -4.35631,-0.511273 -0.28396,-0.0878 -2.94796,-0.544799 -5.92,-1.015558 l -5.40369,-0.855925 -40.92587,-0.176379 -40.92586,-0.176378 0.0652,-2.960966 c 0.0358,-1.628531 -0.032,-3.946671 -0.1507,-5.151423 l -0.21584,-2.190459 -1.96344,-0.355973 c -1.07989,-0.195785 -3.61944,-0.517695 -5.64344,-0.715354 -2.024,-0.19766 -6.92,-0.84528 -10.88,-1.439155 -3.96,-0.593875 -8.712,-1.234891 -10.56,-1.42448 -1.848,-0.189589 -4.08,-0.507873 -4.96,-0.707297 l -1.6,-0.362589 -68.96,-0.106453 C 563.99199,42.9273 509.60189,42.843532 481.05311,42.799698 l -51.90688,-0.0797 1.10688,1.133492 c 0.60878,0.623421 1.10688,1.379421 1.10688,1.68 v 0.546508 l -0.83765,0 -0.83765,0 -1.28784,-1.287843 c -1.58337,-1.583373 -1.57373,-1.593234 -1.63054,1.668187 l -0.0463,2.659656 h -0.48 -0.48 l -0.0916,-3.12 -0.0916,-3.12 H 305.76064 185.94447 l -4.89224,0.617032 c -2.69073,0.339368 -5.90023,0.709625 -7.13223,0.822794 -1.232,0.113169 -4.4,0.547974 -7.04,0.966234 -2.64,0.418261 -6.744,0.987472 -9.12,1.264916 -2.376,0.277443 -6.012,0.739772 -8.08,1.027398 l -3.76,0.522956 v 5.229335 5.229335 l -21.52,0.06643 c -11.836,0.03654 -29.872002,0.0826 -40.080002,0.102358 l -18.56,0.03593 -3.04,0.388286 c -1.672,0.213558 -5.343999,0.731203 -8.159999,1.150322 -2.816,0.419118 -6.056,0.858179 -7.2,0.97569 -1.144,0.11751 -4.96,0.640754 -8.48,1.162763 -10.885431,1.614289 -15.121113,2.053212 -16.08,1.666293 z m 9.2,-3.77872 c 2.552,-0.435605 7.225789,-1.083682 10.386197,-1.440169 3.160409,-0.356488 7.497332,-0.93278 9.637608,-1.28065 2.140276,-0.34787 5.818487,-0.856524 8.173802,-1.130342 2.355316,-0.273818 6.514392,-0.844543 9.242392,-1.268278 2.728,-0.423734 6.976,-0.997103 9.44,-1.274153 2.464,-0.27705 6.712,-0.856731 9.44,-1.28818 2.728,-0.431449 6.544,-0.944771 8.48,-1.140715 1.935999,-0.195944 6.256002,-0.768378 9.600002,-1.272077 3.344,-0.503698 7.736,-1.078272 9.76,-1.27683 2.024,-0.198558 5.84,-0.715864 8.48,-1.149568 2.64,-0.433703 6.744,-1.002266 9.12,-1.263473 2.376,-0.261206 6.624,-0.829189 9.44,-1.262184 2.816,-0.432995 6.848,-0.941876 8.96,-1.130847 2.112,-0.188971 6.504,-0.756023 9.76,-1.260114 3.256,-0.504092 6.856,-1.010812 8,-1.126044 1.144,-0.115233 4.528,-0.559471 7.52,-0.987197 l 5.44,-0.777683 43.60003,-0.08042 c 23.98001,-0.04423 43.60001,-0.04247 43.6,0.0039 -2e-5,0.04639 -0.16676,0.351313 -0.37054,0.677611 l -0.3705,0.593269 0.20046,0.522389 0.20046,0.522389 0.85217,0 0.85218,0 -0.16093,-1.2 -0.16093,-1.2 74.7588,0.08029 c 41.11733,0.04416 75.36301,5.01e-4 76.10149,-0.09701 l 1.34271,-0.177298 -1.13871,-1.074064 -1.13871,-1.074063 -1.33738,-0.336755 -1.33737,-0.336755 -1.90284,-2.101465 c -1.04656,-1.155805 -2.41627,-2.457281 -3.04382,-2.892167 l -1.14098,-0.790704 -1.1188,0 -1.1188,0 -0.384,0.384 -0.384,0.384 v 1.171345 l 0,1.171345 0.8,1.178866 c 0.44,0.648377 0.8,1.325595 0.8,1.50493 l 0,0.326064 -1.02979,-0.100275 -1.02978,-0.100275 -0.73022,-1.087322 -0.73021,-1.087323 0,-1.568568 0,-1.568569 0.4659,-0.900958 0.46591,-0.900959 1.10245,-0.52315 c 1.39152,-0.660319 2.22165,-0.659517 3.61884,0.0035 l 1.10982,0.526644 2.29854,2.513184 c 1.2642,1.382251 2.42415,2.513261 2.57768,2.513355 l 0.27914,1.72e-4 -0.13769,-2.88 -0.1377,-2.879999 1.0484,0 1.0484,0 0.0901,3.740191 0.0902,3.740192 1.0284,0.265952 1.0284,0.265952 0.84958,1.113856 c 0.46727,0.612621 0.98482,1.113856 1.15012,1.113856 l 0.30054,0 -0.0985,-11.839981 -0.0985,-11.839981 -199.76,-1.8e-5 L 25.919999,15.68 v 22.917321 22.917322 l 0.72,-0.196642 c 0.396,-0.108153 2.808,-0.553046 5.36,-0.988652 z M 417.15423,26.693828 c -0.27172,-0.708087 -0.29448,-0.676276 0.74244,-1.037748 l 0.93667,-0.326527 0.22922,-1.528506 0.22921,-1.528505 -0.45654,-0.816271 -0.45654,-0.816271 -1.85635,-0.09678 -1.85635,-0.09678 -0.44453,0.368929 c -0.2445,0.202911 -0.53549,0.853748 -0.64665,1.446304 l -0.20212,1.077374 0.51543,1.512693 0.51543,1.512694 -0.30579,0.305781 -0.30578,0.305781 -2.49599,-0.390766 c -1.3728,-0.214921 -2.82,-0.455266 -3.216,-0.5341 l -0.72,-0.143334 V 22.533628 19.15945 l 1.04,0.100275 1.04,0.100275 -0.0371,2.453901 -0.0371,2.453901 0.67709,0.181729 c 0.37239,0.09995 0.91283,0.183696 1.20097,0.186099 l 0.52389,0.0044 0.12874,-2.278506 0.12875,-2.278505 0.72116,-0.583955 0.72115,-0.583956 1.42407,-0.213553 c 0.78324,-0.117454 1.9248,-0.119617 2.53679,-0.0048 l 1.11272,0.208747 0.96338,0.810627 0.96337,0.810628 0.33966,1.26138 0.33965,1.261381 -0.21351,1.138129 -0.21352,1.13813 -0.78854,0.937129 L 419.1431,27.2 h -0.89732 -0.89732 z M 134,56.334759 l 10,-0.01476 v -3.885586 -3.885586 l -1.84,0.198829 c -5.90289,0.637859 -10.57857,1.249971 -13.68,1.790903 -1.936,0.337665 -5.608,0.846834 -8.16,1.131486 -2.552,0.284653 -5.936,0.707164 -7.52,0.938913 -6.75826,0.988776 -12.77303,1.791467 -16.960002,2.263368 -2.464,0.27771 -5.128,0.681045 -5.92,0.8963 l -1.44,0.391373 L 102.88,56.33813 c 7.92,0.09797 15.912,0.140614 17.76,0.09476 1.848,-0.04586 7.86,-0.09001 13.36,-0.09813 z m 629.19998,-0.03184 0.8,-0.0413 -1.76,-0.550207 c -0.968,-0.302614 -3.416,-0.723985 -5.44,-0.936381 -4.50393,-0.472637 -7.58764,-0.875014 -12.8,-1.670203 -2.2,-0.335628 -5.656,-0.774777 -7.68,-0.975887 -2.024,-0.20111 -5.912,-0.713119 -8.64,-1.137798 -5.47792,-0.852769 -10.1798,-1.510252 -14.56,-2.035981 -1.584,-0.190118 -3.276,-0.422247 -3.76,-0.515842 l -0.88,-0.170173 6e-5,4.105425 6e-5,4.105426 26.95994,-0.06789 c 14.82797,-0.03734 27.31994,-0.08648 27.75994,-0.10919 z m 66.18225,-21.182919 -0.10225,-0.72 -1.04,-0.100274 -1.04,-0.100275 v 0.606941 c 0,0.828821 0.26858,1.033608 1.35559,1.033608 h 0.92892 z m 7.36943,-14.581939 c -1.29343,-1.199306 -2.83421,-2.602994 -3.42397,-3.119308 -2.31429,-2.026089 -3.1824,-4.433337 -1.27181,-3.526704 l 1.06787,0.506739 3.27811,3.312908 3.27812,3.312907 v 0.668813 c 0,0.367848 -0.12975,0.749001 -0.28832,0.847007 l -0.28833,0.178194 z m -823.847666,-3.128619 -0.19592,-0.510559 1.785558,-1.785558 1.785558,-1.785558 0.500405,0.415299 c 0.690368,0.572955 0.676821,0.605412 -1.042211,2.496935 l -1.526798,1.68 H 13.65525 13.099913 Z M 7.1199998,1.3603069 c 4.0040002,-0.050777 10.5560002,-0.050777 14.5599992,0 4.004,0.050777 0.728,0.092322 -7.279999,0.092322 -8.0080002,0 -11.2840001,-0.041545 -7.2800002,-0.092322 z M 473.53999,1.3814035 c 0.231,-0.092439 0.507,-0.08107 0.61333,0.025263 0.10633,0.1063334 -0.0827,0.181965 -0.42,0.1680702 l -0.61333,-0.025263 z m 53.76,0 c 0.231,-0.092439 0.507,-0.08107 0.61333,0.025263 0.10633,0.1063334 -0.0827,0.181965 -0.42,0.1680702 l -0.61333,-0.025263 z m 2.56,0 c 0.231,-0.092439 0.507,-0.08107 0.61333,0.025263 0.10633,0.1063334 -0.0827,0.181965 -0.42,0.1680702 l -0.61333,-0.025263 z m 7.34845,-0.016122 c 0.75266,-0.067599 1.90466,-0.066647 2.56,0.00211 0.65535,0.068761 0.0395,0.1240686 -1.36845,0.1229063 l -2.56,-0.00211 z m 299.35154,-0.00258 c 1.188,-0.06157 3.132,-0.06157 4.32,0 1.188,0.06157 0.216,0.1119454 -2.16,0.1119454 -2.376,0 -3.348,-0.050375 -2.16,-0.1119454 z m 12.80609,0.015539 c 0.31135,-0.081134 0.74335,-0.075798 0.96,0.011857 0.21665,0.087655 -0.0381,0.1540377 -0.56609,0.1475162 l -0.96,-0.011857 z m 2.07764,-0.00457 c 0.39805,-0.076542 0.97405,-0.073636 1.28,0.00646 0.30595,0.080094 -0.0197,0.1427188 -0.72373,0.139167 l -1.28,-0.00646 z"
       id="path1" />
  </g>
</svg>
