<?xml version="1.0" encoding="UTF-8" standalone="no"?>
<!-- Generated by Microsoft Visio, SVG Export Webtool icons 20241219.svg Page-1 -->

<svg
   width="3.6487093in"
   height="1.3839277in"
   viewBox="0 0 262.70731 99.642675"
   xml:space="preserve"
   color-interpolation-filters="sRGB"
   class="st66"
   version="1.1"
   id="svg1439"
   xmlns="http://www.w3.org/2000/svg"
   xmlns:svg="http://www.w3.org/2000/svg"
   xmlns:v="http://schemas.microsoft.com/visio/2003/SVGExtensions/">
	<v:documentProperties
   v:langID="8192"
   v:metric="true"
   v:viewMarkup="false">
		<v:userDefs>
			<v:ud
   v:nameU="msvNoAutoConnect"
   v:val="VT0(1):26" />
		</v:userDefs>
	</v:documentProperties>

	<style
   type="text/css"
   id="style1">
	<![CDATA[
		.st1 {fill:#000000;stroke:#000000;stroke-linecap:round;stroke-linejoin:round;stroke-width:0.24}
		.st2 {fill:none;stroke:none;stroke-linecap:round;stroke-linejoin:round;stroke-width:0.75}
		.st3 {fill:#000000;font-family:Calibri;font-size:1.00001em}
		.st4 {fill:#bfbfbf;stroke:#000000;stroke-linecap:round;stroke-linejoin:round;stroke-width:1.5}
		.st5 {stroke:#000000;stroke-linecap:round;stroke-linejoin:round;stroke-width:1.5}
		.st6 {fill:none;stroke:#000000;stroke-linecap:round;stroke-linejoin:round;stroke-width:1.5}
		.st7 {fill:#a5a5a5;stroke:#000000;stroke-linecap:round;stroke-linejoin:round;stroke-width:1.5}
		.st8 {fill:#7f7f7f;stroke:#000000;stroke-linecap:round;stroke-linejoin:round;stroke-width:1.5}
		.st9 {fill:#ffffff;stroke:#000000;stroke-linecap:round;stroke-linejoin:round;stroke-width:1.5}
		.st10 {fill:#ffffff;stroke:#000000;stroke-linecap:round;stroke-linejoin:round;stroke-width:2}
		.st11 {stroke:#000000;stroke-linecap:round;stroke-linejoin:round;stroke-width:2}
		.st12 {fill:none}
		.st13 {stroke:#000000;stroke-linecap:butt;stroke-width:1.5}
		.st14 {fill:#9f9f9f;fill-opacity:0.48;stroke:none;stroke-linecap:round;stroke-linejoin:round;stroke-width:1.5}
		.st15 {fill:none;stroke-linecap:round;stroke-linejoin:round}
		.st16 {stroke:#000000;stroke-width:35}
		.st17 {stroke:#ff0000;stroke-linecap:round;stroke-linejoin:round;stroke-width:3}
		.st18 {stroke:#000000;stroke-linecap:round;stroke-linejoin:round;stroke-width:3}
		.st19 {fill:#bfbfbf;font-family:Arial;font-size:2.50001em;font-weight:bold}
		.st20 {baseline-shift:-32.4947%;font-size:0.649894em}
		.st21 {marker-end:url(#mrkr4-1110);stroke:#000000;stroke-width:6.25}
		.st22 {fill:#000000;fill-opacity:1;stroke:#000000;stroke-opacity:1;stroke-width:0.61214495592556}
		.st23 {fill:#000000;font-family:Arial;font-size:1.99999em;font-weight:bold}
		.st24 {baseline-shift:-32.4951%;font-size:0.649901em}
		.st25 {marker-end:url(#mrkr4-1122);stroke:#000000;stroke-linecap:round;stroke-linejoin:round;stroke-width:3}
		.st26 {fill:#000000;fill-opacity:1;stroke:#000000;stroke-opacity:1;stroke-width:0.54347826086957}
		.st27 {fill:#000000;font-family:Arial;font-size:2.50001em;font-weight:bold}
		.st28 {fill:#ffffff;stroke:#000000;stroke-linecap:round;stroke-linejoin:round;stroke-width:3}
		.st29 {font-size:1em}
		.st30 {fill:#a5a5a5;stroke:#000000;stroke-linecap:round;stroke-linejoin:round;stroke-width:3}
		.st31 {fill:#7f7f7f;stroke:#000000;stroke-linecap:round;stroke-linejoin:round;stroke-width:3}
		.st32 {stroke:#000000;stroke-linecap:round;stroke-linejoin:round;stroke-width:0.75}
		.st33 {fill:none;stroke:none;stroke-linecap:round;stroke-linejoin:round;stroke-width:1.5}
		.st34 {fill:#000000;font-family:Arial;font-size:3em}
		.st35 {stroke:#000000;stroke-linecap:round;stroke-linejoin:round;stroke-width:0.5}
		.st36 {stroke:#000000;stroke-dasharray:3.5,2.5;stroke-linecap:round;stroke-linejoin:round;stroke-width:0.5}
		.st37 {fill:none;stroke:#000000;stroke-dasharray:4,2;stroke-linecap:butt;stroke-width:0.5}
		.st38 {fill:#ffffff}
		.st39 {marker-end:url(#mrkr9-3043);stroke:#000000;stroke-linecap:round;stroke-linejoin:round;stroke-width:0.5}
		.st40 {fill:#000000;fill-opacity:1;stroke:#000000;stroke-opacity:1;stroke-width:0.21739130434783}
		.st41 {fill:#ffffff;stroke:none;stroke-linecap:butt}
		.st42 {fill:#000000;font-family:Arial;font-size:1.00001em}
		.st43 {fill:#ffffff;stroke:none;stroke-linecap:butt;stroke-width:7.2}
		.st44 {stroke:#000000;stroke-linecap:round;stroke-linejoin:round;stroke-width:0.24}
		.st45 {marker-end:url(#mrkr9-3140);stroke:#000000;stroke-linecap:round;stroke-linejoin:round;stroke-width:0.24}
		.st46 {fill:#000000;fill-opacity:1;stroke:#000000;stroke-opacity:1;stroke-width:0.11764705882353}
		.st47 {fill:none;stroke:none;stroke-linecap:round;stroke-linejoin:round;stroke-width:0.5}
		.st48 {fill:#000000;font-family:Arial;font-size:0.833336em}
		.st49 {fill:#000000;stroke:#000000;stroke-linecap:round;stroke-linejoin:round;stroke-width:0.5}
		.st50 {stroke:#000000;stroke-dasharray:10.5,7.5;stroke-linecap:round;stroke-linejoin:round;stroke-width:1.5}
		.st51 {stroke:#000000;stroke-dasharray:28.5,7.5,10.5,7.5;stroke-linecap:round;stroke-linejoin:round;stroke-width:1.5}
		.st52 {marker-end:url(#mrkr39-3502);stroke:#000000;stroke-linecap:round;stroke-linejoin:round;stroke-width:1.5}
		.st53 {fill:#000000;fill-opacity:1;stroke:#000000;stroke-opacity:1;stroke-width:0.27472527472527}
		.st54 {marker-start:url(#mrkr39-3508);stroke:#000000;stroke-linecap:round;stroke-linejoin:round;stroke-width:1.5}
		.st55 {marker-end:url(#mrkr4-3534);stroke:#000000;stroke-linecap:round;stroke-linejoin:round;stroke-width:1.5}
		.st56 {marker-start:url(#mrkr4-3540);stroke:#000000;stroke-linecap:round;stroke-linejoin:round;stroke-width:1.5}
		.st57 {fill:#000000;font-family:Calibri;font-size:1.5em}
		.st58 {baseline-shift:-32.4951%;font-size:0.649902em}
		.st59 {stroke:none;stroke-linecap:round;stroke-linejoin:round;stroke-width:1.5}
		.st60 {fill:#000000;font-family:Calibri;font-size:2.50001em}
		.st61 {stroke:#ffffff;stroke-dasharray:10.5,7.5;stroke-linecap:round;stroke-linejoin:round;stroke-width:1.5}
		.st62 {fill:#9dbb61;font-family:Calibri;font-size:1.00001em;font-weight:bold}
		.st63 {fill:#0070c0;font-family:Calibri;font-size:1.00001em;font-weight:bold}
		.st64 {fill:#789440;stroke:#000000;stroke-linecap:round;stroke-linejoin:round;stroke-width:0.24}
		.st65 {fill:#0070c0;stroke:#000000;stroke-linecap:round;stroke-linejoin:round;stroke-width:0.24}
		.st66 {fill:none;fill-rule:evenodd;font-size:12px;overflow:visible;stroke-linecap:square;stroke-miterlimit:3}
	]]>
	</style>

	<defs
   id="Markers" />
	<g
   v:mID="0"
   v:index="1"
   v:groupContext="foregroundPage"
   id="g1439"
   transform="translate(-1579.5009,-1274.13)">
		<v:userDefs>
			<v:ud
   v:nameU="LPrec"
   v:val="VT0(2):26" />
			<v:ud
   v:nameU="LUnits"
   v:val="VT0(0):26" />
			<v:ud
   v:nameU="ShowUnits"
   v:val="VT0(0):26" />
		</v:userDefs>
		<title
   id="title8">Page-1</title>
		<v:pageProperties
   v:drawingScale="0.0393701"
   v:pageScale="0.0393701"
   v:drawingUnits="24"
   v:shadowOffsetX="8.50394"
   v:shadowOffsetY="-8.50394" />
		<v:layer
   v:name="Callout"
   v:index="0" />
		<v:layer
   v:name="Connector"
   v:index="1" />
		<v:layer
   v:name="Dimensions"
   v:index="2" />
		<v:layer
   v:name="0"
   v:index="3"
   color="#000000" />
		<v:layer
   v:name="DWGEntityColorOverrideLayer"
   v:index="4"
   v:visibility="hidden" />
		<v:layer
   v:name="CAD Drawing"
   v:index="5" />
		
		
		
		
		
		
		
		
		
		
		
		
		
		
		
		
		
		
		
		
		
		
		
		
		
		
		
		
		
		
		
		
		
		
		
		
		
		
		
		
		
		
		
		
		
		
		
		
		
		
		
		
		
		
		
		
		
		
		
		
		
		
		
		
		
		
		
		
		
		
		
		
		
		
		
		
		
		
		
		
		
		
		
		
		
		
		
		
		
		
		
		
		
		
		
		
		
		
		
		
		
		
		
		
		
		
		
		
		
		
		
		
		
		
		
		
		
		
		
		
		
		
		
		
		
		
		
		
		
		
		
		
		
		
		
		
		
		
		
		
		
		
		
		
		
		
		
		
		
		
		
		
		
		
		
		
		
		
		
		
		
		
		
		
		
		
		
		
		
		
		
		
		
		
		
		
		
		
		
		
		
		
		
		
		
		
		
		
		
		
		
		
		
		
		
		
		
		
		
		
		
		
		
		
		
		
		
		
		
		
		
		
		
		
		
		
		
		
		
		
		
		
		
		
		
		
		
		
		
		
		
		
		
		
		
		
		
		
		
		
		
		
		
		
		
		
		
		
		
		
		
		
		
		
		
		
		
		
		
		
		
		
		
		
		
		
		
		
		
		
		
		<g
   id="shape2719-2730"
   v:mID="2719"
   v:groupContext="shape"
   v:layerMember="3"
   transform="rotate(90,1469.16,2744.29)">
			<title
   id="title880">Sheet.2719</title>
			<v:userDefs>
				<v:ud
   v:nameU="SOLSH"
   v:prompt=""
   v:val="VT4({13D0FF3B-CF5B-4a46-98AB-14030248EAEF})" />
				<v:ud
   v:nameU="DWGEntityType"
   v:prompt=""
   v:val="VT4(LINE)" />
			</v:userDefs>
			<path
   d="M 0,2598.52 H 60.09"
   class="st11"
   id="path880" />
		</g>
		<g
   id="shape2720-2733"
   v:mID="2720"
   v:groupContext="shape"
   v:layerMember="3"
   transform="rotate(135,1081.5527,2271.2892)">
			<title
   id="title881">Sheet.2720</title>
			<v:userDefs>
				<v:ud
   v:nameU="SOLSH"
   v:prompt=""
   v:val="VT4({13D0FF3B-CF5B-4a46-98AB-14030248EAEF})" />
				<v:ud
   v:nameU="DWGEntityType"
   v:prompt=""
   v:val="VT4(LINE)" />
			</v:userDefs>
			<path
   d="M 0,2598.52 H 18.68"
   class="st11"
   id="path881" />
		</g>
		
		
		
		
		
		
		
		<g
   id="shape2728-2743"
   v:mID="2728"
   v:groupContext="shape"
   v:layerMember="3"
   transform="rotate(135,1080.0223,2275.0546)">
			<title
   id="title889">Sheet.2728</title>
			<v:userDefs>
				<v:ud
   v:nameU="SOLSH"
   v:prompt=""
   v:val="VT4({13D0FF3B-CF5B-4a46-98AB-14030248EAEF})" />
				<v:ud
   v:nameU="DWGEntityType"
   v:prompt=""
   v:val="VT4(LINE)" />
			</v:userDefs>
			<path
   d="M 0,2598.52 H 18.75"
   class="st11"
   id="path889" />
		</g>
		<g
   id="shape2729-2746"
   v:mID="2729"
   v:groupContext="shape"
   v:layerMember="3"
   transform="rotate(135,1078.467,2278.8096)">
			<title
   id="title890">Sheet.2729</title>
			<v:userDefs>
				<v:ud
   v:nameU="SOLSH"
   v:prompt=""
   v:val="VT4({13D0FF3B-CF5B-4a46-98AB-14030248EAEF})" />
				<v:ud
   v:nameU="DWGEntityType"
   v:prompt=""
   v:val="VT4(LINE)" />
			</v:userDefs>
			<path
   d="M 0,2598.52 H 18.75"
   class="st11"
   id="path890" />
		</g>
		<g
   id="shape2730-2749"
   v:mID="2730"
   v:groupContext="shape"
   v:layerMember="3"
   transform="rotate(135,1076.9116,2282.5646)">
			<title
   id="title891">Sheet.2730</title>
			<v:userDefs>
				<v:ud
   v:nameU="SOLSH"
   v:prompt=""
   v:val="VT4({13D0FF3B-CF5B-4a46-98AB-14030248EAEF})" />
				<v:ud
   v:nameU="DWGEntityType"
   v:prompt=""
   v:val="VT4(LINE)" />
			</v:userDefs>
			<path
   d="M 0,2598.52 H 18.75"
   class="st11"
   id="path891" />
		</g>
		<g
   id="shape2731-2752"
   v:mID="2731"
   v:groupContext="shape"
   v:layerMember="3"
   transform="rotate(135,1075.3562,2286.3196)">
			<title
   id="title892">Sheet.2731</title>
			<v:userDefs>
				<v:ud
   v:nameU="SOLSH"
   v:prompt=""
   v:val="VT4({13D0FF3B-CF5B-4a46-98AB-14030248EAEF})" />
				<v:ud
   v:nameU="DWGEntityType"
   v:prompt=""
   v:val="VT4(LINE)" />
			</v:userDefs>
			<path
   d="M 0,2598.52 H 18.75"
   class="st11"
   id="path892" />
		</g>
		<g
   id="shape2732-2755"
   v:mID="2732"
   v:groupContext="shape"
   v:layerMember="3"
   transform="rotate(135,1073.8009,2290.0746)">
			<title
   id="title893">Sheet.2732</title>
			<v:userDefs>
				<v:ud
   v:nameU="SOLSH"
   v:prompt=""
   v:val="VT4({13D0FF3B-CF5B-4a46-98AB-14030248EAEF})" />
				<v:ud
   v:nameU="DWGEntityType"
   v:prompt=""
   v:val="VT4(LINE)" />
			</v:userDefs>
			<path
   d="M 0,2598.52 H 18.75"
   class="st11"
   id="path893" />
		</g>
		<g
   id="shape2733-2758"
   v:mID="2733"
   v:groupContext="shape"
   v:layerMember="3"
   transform="rotate(135,1072.2434,2293.8346)">
			<title
   id="title894">Sheet.2733</title>
			<v:userDefs>
				<v:ud
   v:nameU="SOLSH"
   v:prompt=""
   v:val="VT4({13D0FF3B-CF5B-4a46-98AB-14030248EAEF})" />
				<v:ud
   v:nameU="DWGEntityType"
   v:prompt=""
   v:val="VT4(LINE)" />
			</v:userDefs>
			<path
   d="M 0,2598.52 H 18.75"
   class="st11"
   id="path894" />
		</g>
		<g
   id="shape2734-2761"
   v:mID="2734"
   v:groupContext="shape"
   v:layerMember="3"
   transform="rotate(135,1070.688,2297.5896)">
			<title
   id="title895">Sheet.2734</title>
			<v:userDefs>
				<v:ud
   v:nameU="SOLSH"
   v:prompt=""
   v:val="VT4({13D0FF3B-CF5B-4a46-98AB-14030248EAEF})" />
				<v:ud
   v:nameU="DWGEntityType"
   v:prompt=""
   v:val="VT4(LINE)" />
			</v:userDefs>
			<path
   d="M 0,2598.52 H 18.75"
   class="st11"
   id="path895" />
		</g>
		<g
   id="shape2735-2764"
   v:mID="2735"
   v:groupContext="shape"
   v:layerMember="3"
   transform="rotate(135,1069.1327,2301.3446)">
			<title
   id="title896">Sheet.2735</title>
			<v:userDefs>
				<v:ud
   v:nameU="SOLSH"
   v:prompt=""
   v:val="VT4({13D0FF3B-CF5B-4a46-98AB-14030248EAEF})" />
				<v:ud
   v:nameU="DWGEntityType"
   v:prompt=""
   v:val="VT4(LINE)" />
			</v:userDefs>
			<path
   d="M 0,2598.52 H 18.75"
   class="st11"
   id="path896" />
		</g>
		<g
   id="shape2736-2767"
   v:mID="2736"
   v:groupContext="shape"
   v:layerMember="3"
   transform="translate(1580.69,-1225.75)">
			<title
   id="title897">Sheet.2736</title>
			<v:userDefs>
				<v:ud
   v:nameU="SOLSH"
   v:prompt=""
   v:val="VT4({13D0FF3B-CF5B-4a46-98AB-14030248EAEF})" />
				<v:ud
   v:nameU="DWGEntityType"
   v:prompt=""
   v:val="VT4(SPLINE)" />
			</v:userDefs>
			<path
   d="m 34.3,2598.52 c -9.38,-0.5 -18.98,-4.93 -25.45,-12.11 -6.2,-6.87 -9.53,-16.25 -8.98,-25.45 0.53,-8.78 4.6,-17.4 11.19,-23.23 6.29,-5.57 14.86,-8.6 23.24,-8.06 7.97,0.51 15.77,4.25 21.02,10.27 4.99,5.71 7.69,13.46 7.15,21.02 -0.51,7.16 -3.92,14.14 -9.36,18.81 -5.13,4.41 -12.07,6.77 -18.81,6.23 -6.34,-0.51 -12.5,-3.58 -16.6,-8.44 -3.83,-4.55 -5.85,-10.67 -5.31,-16.6 0.51,-5.52 3.24,-10.87 7.53,-14.38 3.97,-3.26 9.27,-4.94 14.38,-4.4 4.7,0.51 9.24,2.9 12.17,6.61 2.68,3.39 4.03,7.88 3.48,12.17 -0.5,3.89 -2.56,7.61 -5.69,9.96 -2.81,2.11 -6.49,3.12 -9.96,2.56 -3.07,-0.49 -5.98,-2.21 -7.75,-4.77 -1.53,-2.23 -2.21,-5.1 -1.64,-7.75 0.48,-2.25 1.87,-4.35 3.86,-5.53 1.65,-0.97 3.71,-1.32 5.53,-0.73 1.45,0.47 2.75,1.53 3.32,2.94 0.43,1.06 0.46,2.32 -0.19,3.32 -0.45,0.7 -1.23,1.28 -2.02,1.11 -0.55,-0.12 -1.11,-0.59 -1.11,-1.11 z"
   class="st12"
   id="path897" />
			<path
   d="m 34.3,2598.52 c -9.38,-0.5 -18.98,-4.93 -25.45,-12.11 -6.2,-6.87 -9.53,-16.25 -8.98,-25.45 0.53,-8.78 4.6,-17.4 11.19,-23.23 6.29,-5.57 14.86,-8.6 23.24,-8.06 7.97,0.51 15.77,4.25 21.02,10.27 4.99,5.71 7.69,13.46 7.15,21.02 -0.51,7.16 -3.92,14.14 -9.36,18.81 -5.13,4.41 -12.07,6.77 -18.81,6.23 -6.34,-0.51 -12.5,-3.58 -16.6,-8.44 -3.83,-4.55 -5.85,-10.67 -5.31,-16.6 0.51,-5.52 3.24,-10.87 7.53,-14.38 3.97,-3.26 9.27,-4.94 14.38,-4.4 4.7,0.51 9.24,2.9 12.17,6.61 2.68,3.39 4.03,7.88 3.48,12.17 -0.5,3.89 -2.56,7.61 -5.69,9.96 -2.81,2.11 -6.49,3.12 -9.96,2.56 -3.07,-0.49 -5.98,-2.21 -7.75,-4.77 -1.53,-2.23 -2.21,-5.1 -1.64,-7.75 0.48,-2.25 1.87,-4.35 3.86,-5.53 1.65,-0.97 3.71,-1.32 5.53,-0.73 1.45,0.47 2.75,1.53 3.32,2.94 0.43,1.06 0.46,2.32 -0.19,3.32 -0.45,0.7 -1.23,1.28 -2.02,1.11 -0.55,-0.12 -1.11,-0.59 -1.11,-1.11"
   class="st11"
   id="path898" />
		</g>
		
		
		
		
		
		
		
		
		
		
		
		
		
		
		
		
		
		<g
   id="shape2754-2807"
   v:mID="2754"
   v:groupContext="shape"
   v:layerMember="3"
   transform="translate(1614.99,-1263.3)">
			<title
   id="title915">Sheet.2754</title>
			<v:userDefs>
				<v:ud
   v:nameU="SOLSH"
   v:prompt=""
   v:val="VT4({13D0FF3B-CF5B-4a46-98AB-14030248EAEF})" />
				<v:ud
   v:nameU="DWGEntityType"
   v:prompt=""
   v:val="VT4(LINE)" />
			</v:userDefs>
			<path
   d="M 0,2598.52 H 197.99"
   class="st11"
   id="path915" />
		</g>
		<g
   id="shape2755-2810"
   v:mID="2755"
   v:groupContext="shape"
   v:layerMember="3"
   transform="rotate(90,1568.21,2843.34)">
			<title
   id="title916">Sheet.2755</title>
			<v:userDefs>
				<v:ud
   v:nameU="SOLSH"
   v:prompt=""
   v:val="VT4({13D0FF3B-CF5B-4a46-98AB-14030248EAEF})" />
				<v:ud
   v:nameU="DWGEntityType"
   v:prompt=""
   v:val="VT4(LINE)" />
			</v:userDefs>
			<path
   d="M 0,2598.52 H 60.09"
   class="st11"
   id="path916" />
		</g>
		<g
   id="shape2756-2813"
   v:mID="2756"
   v:groupContext="shape"
   v:layerMember="3"
   transform="rotate(45,2503.991,4125.343)">
			<title
   id="title917">Sheet.2756</title>
			<v:userDefs>
				<v:ud
   v:nameU="SOLSH"
   v:prompt=""
   v:val="VT4({13D0FF3B-CF5B-4a46-98AB-14030248EAEF})" />
				<v:ud
   v:nameU="DWGEntityType"
   v:prompt=""
   v:val="VT4(LINE)" />
			</v:userDefs>
			<path
   d="M 0,2598.52 H 18.68"
   class="st11"
   id="path917" />
		</g>
		
		
		
		
		
		
		
		<g
   id="shape2764-2823"
   v:mID="2764"
   v:groupContext="shape"
   v:layerMember="3"
   transform="rotate(45,2494.8944,4129.0261)">
			<title
   id="title925">Sheet.2764</title>
			<v:userDefs>
				<v:ud
   v:nameU="SOLSH"
   v:prompt=""
   v:val="VT4({13D0FF3B-CF5B-4a46-98AB-14030248EAEF})" />
				<v:ud
   v:nameU="DWGEntityType"
   v:prompt=""
   v:val="VT4(LINE)" />
			</v:userDefs>
			<path
   d="M 0,2598.52 H 18.75"
   class="st11"
   id="path925" />
		</g>
		<g
   id="shape2765-2826"
   v:mID="2765"
   v:groupContext="shape"
   v:layerMember="3"
   transform="rotate(45,2485.8266,4132.7821)">
			<title
   id="title926">Sheet.2765</title>
			<v:userDefs>
				<v:ud
   v:nameU="SOLSH"
   v:prompt=""
   v:val="VT4({13D0FF3B-CF5B-4a46-98AB-14030248EAEF})" />
				<v:ud
   v:nameU="DWGEntityType"
   v:prompt=""
   v:val="VT4(LINE)" />
			</v:userDefs>
			<path
   d="M 0,2598.52 H 18.75"
   class="st11"
   id="path926" />
		</g>
		<g
   id="shape2766-2829"
   v:mID="2766"
   v:groupContext="shape"
   v:layerMember="3"
   transform="rotate(45,2476.76,4136.5376)">
			<title
   id="title927">Sheet.2766</title>
			<v:userDefs>
				<v:ud
   v:nameU="SOLSH"
   v:prompt=""
   v:val="VT4({13D0FF3B-CF5B-4a46-98AB-14030248EAEF})" />
				<v:ud
   v:nameU="DWGEntityType"
   v:prompt=""
   v:val="VT4(LINE)" />
			</v:userDefs>
			<path
   d="M 0,2598.52 H 18.75"
   class="st11"
   id="path927" />
		</g>
		<g
   id="shape2767-2832"
   v:mID="2767"
   v:groupContext="shape"
   v:layerMember="3"
   transform="rotate(45,2467.6934,4140.2931)">
			<title
   id="title928">Sheet.2767</title>
			<v:userDefs>
				<v:ud
   v:nameU="SOLSH"
   v:prompt=""
   v:val="VT4({13D0FF3B-CF5B-4a46-98AB-14030248EAEF})" />
				<v:ud
   v:nameU="DWGEntityType"
   v:prompt=""
   v:val="VT4(LINE)" />
			</v:userDefs>
			<path
   d="M 0,2598.52 H 18.75"
   class="st11"
   id="path928" />
		</g>
		<g
   id="shape2768-2835"
   v:mID="2768"
   v:groupContext="shape"
   v:layerMember="3"
   transform="rotate(45,2458.6257,4144.0491)">
			<title
   id="title929">Sheet.2768</title>
			<v:userDefs>
				<v:ud
   v:nameU="SOLSH"
   v:prompt=""
   v:val="VT4({13D0FF3B-CF5B-4a46-98AB-14030248EAEF})" />
				<v:ud
   v:nameU="DWGEntityType"
   v:prompt=""
   v:val="VT4(LINE)" />
			</v:userDefs>
			<path
   d="M 0,2598.52 H 18.75"
   class="st11"
   id="path929" />
		</g>
		<g
   id="shape2769-2838"
   v:mID="2769"
   v:groupContext="shape"
   v:layerMember="3"
   transform="rotate(45,2449.5591,4147.8046)">
			<title
   id="title930">Sheet.2769</title>
			<v:userDefs>
				<v:ud
   v:nameU="SOLSH"
   v:prompt=""
   v:val="VT4({13D0FF3B-CF5B-4a46-98AB-14030248EAEF})" />
				<v:ud
   v:nameU="DWGEntityType"
   v:prompt=""
   v:val="VT4(LINE)" />
			</v:userDefs>
			<path
   d="M 0,2598.52 H 18.75"
   class="st11"
   id="path930" />
		</g>
		<g
   id="shape2770-2841"
   v:mID="2770"
   v:groupContext="shape"
   v:layerMember="3"
   transform="rotate(45,2440.4913,4151.5606)">
			<title
   id="title931">Sheet.2770</title>
			<v:userDefs>
				<v:ud
   v:nameU="SOLSH"
   v:prompt=""
   v:val="VT4({13D0FF3B-CF5B-4a46-98AB-14030248EAEF})" />
				<v:ud
   v:nameU="DWGEntityType"
   v:prompt=""
   v:val="VT4(LINE)" />
			</v:userDefs>
			<path
   d="M 0,2598.52 H 18.75"
   class="st11"
   id="path931" />
		</g>
		<g
   id="shape2771-2844"
   v:mID="2771"
   v:groupContext="shape"
   v:layerMember="3"
   transform="rotate(45,2431.4247,4155.3161)">
			<title
   id="title932">Sheet.2771</title>
			<v:userDefs>
				<v:ud
   v:nameU="SOLSH"
   v:prompt=""
   v:val="VT4({13D0FF3B-CF5B-4a46-98AB-14030248EAEF})" />
				<v:ud
   v:nameU="DWGEntityType"
   v:prompt=""
   v:val="VT4(LINE)" />
			</v:userDefs>
			<path
   d="M 0,2598.52 H 18.75"
   class="st11"
   id="path932" />
		</g>
		<g
   id="shape2772-2847"
   v:mID="2772"
   v:groupContext="shape"
   v:layerMember="3"
   transform="translate(1778.67,-1232.1)">
			<title
   id="title933">Sheet.2772</title>
			<v:userDefs>
				<v:ud
   v:nameU="SOLSH"
   v:prompt=""
   v:val="VT4({13D0FF3B-CF5B-4a46-98AB-14030248EAEF})" />
				<v:ud
   v:nameU="DWGEntityType"
   v:prompt=""
   v:val="VT4(SPLINE)" />
			</v:userDefs>
			<path
   d="m 34.3,2529.76 c -9.38,0.5 -18.98,4.93 -25.45,12.11 -6.2,6.87 -9.53,16.25 -8.98,25.45 0.53,8.79 4.6,17.4 11.19,23.24 6.29,5.56 14.86,8.6 23.24,8.06 7.97,-0.51 15.77,-4.26 21.02,-10.28 4.99,-5.71 7.69,-13.46 7.15,-21.02 -0.51,-7.15 -3.92,-14.14 -9.36,-18.81 -5.13,-4.41 -12.07,-6.77 -18.81,-6.23 -6.34,0.51 -12.5,3.58 -16.6,8.44 -3.83,4.55 -5.85,10.67 -5.31,16.6 0.51,5.52 3.24,10.87 7.53,14.38 3.97,3.26 9.27,4.94 14.38,4.4 4.7,-0.5 9.24,-2.9 12.17,-6.61 2.68,-3.39 4.03,-7.88 3.48,-12.17 -0.5,-3.89 -2.56,-7.61 -5.69,-9.96 -2.81,-2.11 -6.49,-3.12 -9.96,-2.56 -3.07,0.49 -5.98,2.21 -7.75,4.77 -1.53,2.23 -2.21,5.1 -1.64,7.75 0.48,2.26 1.87,4.36 3.86,5.53 1.65,0.98 3.71,1.32 5.53,0.73 1.45,-0.47 2.75,-1.53 3.32,-2.94 0.43,-1.06 0.46,-2.32 -0.19,-3.32 -0.45,-0.7 -1.23,-1.28 -2.02,-1.11 -0.55,0.12 -1.11,0.59 -1.11,1.11 z"
   class="st12"
   id="path933" />
			<path
   d="m 34.3,2529.76 c -9.38,0.5 -18.98,4.93 -25.45,12.11 -6.2,6.87 -9.53,16.25 -8.98,25.45 0.53,8.79 4.6,17.4 11.19,23.24 6.29,5.56 14.86,8.6 23.24,8.06 7.97,-0.51 15.77,-4.26 21.02,-10.28 4.99,-5.71 7.69,-13.46 7.15,-21.02 -0.51,-7.15 -3.92,-14.14 -9.36,-18.81 -5.13,-4.41 -12.07,-6.77 -18.81,-6.23 -6.34,0.51 -12.5,3.58 -16.6,8.44 -3.83,4.55 -5.85,10.67 -5.31,16.6 0.51,5.52 3.24,10.87 7.53,14.38 3.97,3.26 9.27,4.94 14.38,4.4 4.7,-0.5 9.24,-2.9 12.17,-6.61 2.68,-3.39 4.03,-7.88 3.48,-12.17 -0.5,-3.89 -2.56,-7.61 -5.69,-9.96 -2.81,-2.11 -6.49,-3.12 -9.96,-2.56 -3.07,0.49 -5.98,2.21 -7.75,4.77 -1.53,2.23 -2.21,5.1 -1.64,7.75 0.48,2.26 1.87,4.36 3.86,5.53 1.65,0.98 3.71,1.32 5.53,0.73 1.45,-0.47 2.75,-1.53 3.32,-2.94 0.43,-1.06 0.46,-2.32 -0.19,-3.32 -0.45,-0.7 -1.23,-1.28 -2.02,-1.11 -0.55,0.12 -1.11,0.59 -1.11,1.11"
   class="st11"
   id="path934" />
		</g>
		
		
		
		
		
		
		
		
		
		
		
		
		
		
		
		
		
		
		
		
		
		
		
		
		
		
		
		
		
		
		
		
		
		
		
		
		
		
		
		
		
		
		
		
		
		
		
		
		
		
		
		
		
		
		
		
		
		
		
		
		
		
		
		
		
		
		
		
		
		
		
		
		
		
		
		
		
		
		
		
		
		
		
		
		
		
		
		
		
		
		
		
		
		
		
		
		
		
		
		
		
		
		
		
		
		
		
		
		
		
		
		
		
		
		
		
		
		
		
		
		
		
		
		
		
		
		
		
		
		
		
		
		
		
		
		
		
		
		
		
		
		
		
		
		
		
		
		
		
		
		
		
		
		
		
		
		
		
		
		
		
		
		
		
		
		
		
		
		
		
		
		
		
		
		
		
		
		
		
		
		
		
		
		
		
		
		
		
		
		
		
		
		
		
		
		
		
		
		
		
		
		
		
		
		
		
		
		
		
		
		
		
		
		
		
		
		
		
		
		
		
		
		
		
		
		
		
		
		
		
		
		
		
		
		
		
		
		
		
		
		
		
		
		
		
		
		
		
	</g>
</svg>
