<?xml version="1.0" encoding="UTF-8"?>
<svg id="Calque_2" xmlns="http://www.w3.org/2000/svg" viewBox="0 0 1722.87 2392.87">
  <defs>
    <style>
      .cls-1 {
        fill: #4f8fcc;
      }

      .cls-2 {
        fill: #c8d400;
      }

      .cls-3 {
        fill: #fff;
      }
    </style>
  </defs>
  <g id="Calque_1-2" data-name="Calque_1">
    <g>
      <polygon points="0 0 0 1196.43 0 2392.87 1722.87 2392.87 1722.87 1196.43 1722.87 0 0 0"/>
      <g>
        <rect class="cls-3" x="1473.51" y="561.93" width="249.36" height="72.58"/>
        <rect class="cls-3" x="1105.13" y="561.93" width="249.36" height="72.58"/>
        <rect class="cls-3" x="736.75" y="561.93" width="249.36" height="72.58"/>
        <rect class="cls-3" x="368.38" y="561.93" width="249.36" height="72.58"/>
        <rect class="cls-3" y="561.93" width="249.36" height="72.58"/>
      </g>
      <g>
        <rect class="cls-3" x="1473.51" y="1758.36" width="249.36" height="72.58"/>
        <rect class="cls-3" x="1105.13" y="1758.36" width="249.36" height="72.58"/>
        <rect class="cls-3" x="736.75" y="1758.36" width="249.36" height="72.58"/>
        <rect class="cls-3" x="368.38" y="1758.36" width="249.36" height="72.58"/>
        <rect class="cls-3" y="1758.36" width="249.36" height="72.58"/>
      </g>
      <g>
        <rect class="cls-3" x="1473.51" y="1160.15" width="249.36" height="72.58"/>
        <rect class="cls-3" x="1105.13" y="1160.15" width="249.36" height="72.58"/>
        <rect class="cls-3" x="736.75" y="1160.15" width="249.36" height="72.58"/>
        <rect class="cls-3" x="368.38" y="1160.15" width="249.36" height="72.58"/>
        <rect class="cls-3" y="1160.15" width="249.36" height="72.58"/>
      </g>
      <g>
        <path class="cls-2" d="M1258.66,232.42h30.08v118.07h71.29v25.88h-101.37v-143.95Z"/>
        <path class="cls-2" d="M1441.28,376.37h-28.52v-97.66h-33.3v-18.95c8.79-.39,14.94-.98,18.46-1.76,5.6-1.24,10.16-3.71,13.67-7.42,2.41-2.54,4.23-5.92,5.47-10.16.72-2.54,1.07-4.43,1.07-5.66h23.14v141.6Z"/>
        <path class="cls-2" d="M1577.9,376.37v-64.26h-56.25v64.26h-29.79v-143.95h29.79v54.88h56.25v-54.88h29.88v143.95h-29.88Z"/>
      </g>
      <g>
        <path class="cls-2" d="M1265.84,825.35h30.08v118.07h71.29v25.88h-101.37v-143.95Z"/>
        <path class="cls-2" d="M1442.3,856.5c-3.32-3.97-8.07-5.96-14.26-5.96-8.46,0-14.23,3.16-17.29,9.47-1.76,3.65-2.8,9.44-3.12,17.38h-27.05c.46-12.04,2.64-21.78,6.54-29.2,7.42-14.13,20.61-21.19,39.55-21.19,14.97,0,26.89,4.15,35.74,12.45,8.85,8.3,13.28,19.29,13.28,32.96,0,10.48-3.12,19.79-9.38,27.93-4.1,5.4-10.84,11.43-20.21,18.07l-11.13,7.91c-6.97,4.95-11.74,8.53-14.31,10.74-2.57,2.21-4.74,4.79-6.49,7.71h61.82v24.51h-96.97c.26-10.16,2.44-19.43,6.54-27.83,3.97-9.44,13.35-19.43,28.12-29.98,12.83-9.18,21.13-15.75,24.9-19.73,5.79-6.18,8.69-12.96,8.69-20.31,0-5.99-1.66-10.97-4.98-14.94Z"/>
        <path class="cls-2" d="M1499.24,825.35h30.08v118.07h71.29v25.88h-101.37v-143.95Z"/>
      </g>
      <g>
        <path class="cls-2" d="M1265.84,1310.8h30.08v118.07h71.29v25.88h-101.37v-143.95Z"/>
        <path class="cls-2" d="M1411.05,1341.37c-3.12,4.17-4.62,9.73-4.49,16.7h-25.98c.26-7.03,1.46-13.7,3.61-20.02,2.28-5.53,5.86-10.64,10.74-15.33,3.65-3.32,7.97-5.86,12.99-7.62,5.01-1.76,11.17-2.64,18.46-2.64,13.54,0,24.46,3.5,32.76,10.5,8.3,7,12.45,16.39,12.45,28.17,0,8.33-2.47,15.37-7.42,21.09-3.12,3.58-6.38,6.02-9.77,7.32,2.54,0,6.18,2.18,10.94,6.54,7.1,6.58,10.64,15.56,10.64,26.95,0,11.98-4.15,22.51-12.45,31.59s-20.59,13.62-36.87,13.62c-20.05,0-33.98-6.54-41.8-19.63-4.1-6.97-6.38-16.08-6.84-27.34h27.34c0,5.66.91,10.35,2.73,14.06,3.38,6.84,9.54,10.25,18.46,10.25,5.47,0,10.24-1.87,14.31-5.62,4.07-3.74,6.1-9.13,6.1-16.16,0-9.31-3.78-15.53-11.33-18.65-4.3-1.76-11.07-2.64-20.31-2.64v-19.92c9.05-.13,15.36-1.01,18.95-2.64,6.18-2.73,9.28-8.27,9.28-16.6,0-5.4-1.58-9.8-4.74-13.18-3.16-3.38-7.6-5.08-13.33-5.08-6.58,0-11.39,2.08-14.45,6.25Z"/>
        <path class="cls-2" d="M1499.24,1310.8h30.08v118.07h71.29v25.88h-101.37v-143.95Z"/>
      </g>
      <g>
        <path class="cls-1" d="M1265.84,1536.34h30.08v118.07h71.29v25.88h-101.37v-143.95Z"/>
        <path class="cls-1" d="M1442.3,1567.49c-3.32-3.97-8.07-5.96-14.26-5.96-8.46,0-14.23,3.16-17.29,9.47-1.76,3.65-2.8,9.44-3.12,17.38h-27.05c.46-12.04,2.64-21.78,6.54-29.2,7.42-14.13,20.61-21.19,39.55-21.19,14.97,0,26.89,4.15,35.74,12.45,8.85,8.3,13.28,19.29,13.28,32.96,0,10.48-3.12,19.79-9.38,27.93-4.1,5.4-10.84,11.43-20.21,18.07l-11.13,7.91c-6.97,4.95-11.74,8.53-14.31,10.74-2.57,2.21-4.74,4.79-6.49,7.71h61.82v24.51h-96.97c.26-10.16,2.44-19.43,6.54-27.83,3.97-9.44,13.35-19.43,28.12-29.98,12.83-9.18,21.13-15.75,24.9-19.73,5.79-6.18,8.69-12.96,8.69-20.31,0-5.99-1.66-10.97-4.98-14.94Z"/>
        <path class="cls-1" d="M1499.24,1536.34h30.08v118.07h71.29v25.88h-101.37v-143.95Z"/>
      </g>
      <g>
        <path class="cls-1" d="M1258.66,2126.55h30.08v118.07h71.29v25.88h-101.37v-143.95Z"/>
        <path class="cls-1" d="M1441.28,2270.5h-28.52v-97.66h-33.3v-18.95c8.79-.39,14.94-.98,18.46-1.76,5.6-1.24,10.16-3.71,13.67-7.42,2.41-2.54,4.23-5.92,5.47-10.16.72-2.54,1.07-4.43,1.07-5.66h23.14v141.6Z"/>
        <path class="cls-1" d="M1577.9,2270.5v-64.26h-56.25v64.26h-29.79v-143.95h29.79v54.88h56.25v-54.88h29.88v143.95h-29.88Z"/>
      </g>
      <g>
        <path class="cls-2" d="M1265.84,1906.77h30.08v118.07h71.29v25.88h-101.37v-143.95Z"/>
        <path class="cls-2" d="M1477.36,1998.47v21.78h-16.02v30.47h-27.25v-30.47h-56.05v-24.32l52.05-85.94h31.25v88.48h16.02ZM1398.65,1998.47h35.45v-61.13l-35.45,61.13Z"/>
        <path class="cls-2" d="M1499.24,1906.77h30.08v118.07h71.29v25.88h-101.37v-143.95Z"/>
      </g>
      <g>
        <rect class="cls-2" x="235" y="265.99" width="883.54" height="76.81"/>
        <polygon class="cls-2" points="263.02 208.64 97.2 304.39 263.02 400.14 263.02 208.64"/>
      </g>
      <g>
        <rect class="cls-2" x="235" y="858.92" width="883.54" height="76.81"/>
        <polygon class="cls-2" points="263.02 801.57 97.2 897.32 263.02 993.07 263.02 801.57"/>
      </g>
      <g>
        <rect class="cls-2" x="235" y="1346.12" width="883.54" height="76.81"/>
        <polygon class="cls-2" points="263.02 1288.78 97.2 1384.52 263.02 1480.27 263.02 1288.78"/>
      </g>
      <g>
        <rect class="cls-2" x="235" y="1940.34" width="883.54" height="76.81"/>
        <polygon class="cls-2" points="263.02 1882.99 97.2 1978.74 263.02 2074.49 263.02 1882.99"/>
      </g>
      <g>
        <rect class="cls-1" x="97.2" y="1569.9" width="883.54" height="76.81"/>
        <polygon class="cls-1" points="952.73 1704.07 1118.54 1608.32 952.73 1512.57 952.73 1704.07"/>
      </g>
      <g>
        <rect class="cls-1" x="97.2" y="2160.12" width="883.54" height="76.81"/>
        <polygon class="cls-1" points="952.73 2294.28 1118.54 2198.54 952.73 2102.78 952.73 2294.28"/>
      </g>
    </g>
  </g>
</svg>