<?xml version="1.0" encoding="UTF-8"?>
<svg id="Calque_2" xmlns="http://www.w3.org/2000/svg" viewBox="0 0 1722.87 1196.43">
  <defs>
    <style>
      .cls-1 {
        fill: #c8d400;
      }

      .cls-2 {
        fill: #fff;
      }
    </style>
  </defs>
  <g id="Calque_1-2" data-name="Calque_1">
    <g>
      <rect width="1722.87" height="1196.43"/>
      <g>
        <rect class="cls-2" x="1473.51" y="561.93" width="249.36" height="72.58"/>
        <rect class="cls-2" x="1105.13" y="561.93" width="249.36" height="72.58"/>
        <rect class="cls-2" x="736.75" y="561.93" width="249.36" height="72.58"/>
        <rect class="cls-2" x="368.38" y="561.93" width="249.36" height="72.58"/>
        <rect class="cls-2" y="561.93" width="249.36" height="72.58"/>
      </g>
      <g>
        <path class="cls-1" d="M1258.66,227.14h30.08v118.07h71.29v25.88h-101.37v-143.95Z"/>
        <path class="cls-1" d="M1441.28,371.08h-28.52v-97.66h-33.3v-18.95c8.79-.39,14.94-.98,18.46-1.76,5.6-1.24,10.16-3.71,13.67-7.42,2.41-2.54,4.23-5.92,5.47-10.16.72-2.54,1.07-4.43,1.07-5.66h23.14v141.6Z"/>
        <path class="cls-1" d="M1577.9,371.08v-64.26h-56.25v64.26h-29.79v-143.95h29.79v54.88h56.25v-54.88h29.88v143.95h-29.88Z"/>
      </g>
      <g>
        <path class="cls-1" d="M1265.84,825.35h30.08v118.07h71.29v25.88h-101.37v-143.95Z"/>
        <path class="cls-1" d="M1442.3,856.5c-3.32-3.97-8.07-5.96-14.26-5.96-8.46,0-14.23,3.16-17.29,9.47-1.76,3.65-2.8,9.44-3.12,17.38h-27.05c.46-12.04,2.64-21.78,6.54-29.2,7.42-14.13,20.61-21.19,39.55-21.19,14.97,0,26.89,4.15,35.74,12.45,8.85,8.3,13.28,19.29,13.28,32.96,0,10.48-3.12,19.79-9.38,27.93-4.1,5.4-10.84,11.43-20.21,18.07l-11.13,7.91c-6.97,4.95-11.74,8.53-14.31,10.74-2.57,2.21-4.74,4.79-6.49,7.71h61.82v24.51h-96.97c.26-10.16,2.44-19.43,6.54-27.83,3.97-9.44,13.35-19.43,28.12-29.98,12.83-9.18,21.13-15.75,24.9-19.73,5.79-6.18,8.69-12.96,8.69-20.31,0-5.99-1.66-10.97-4.98-14.94Z"/>
        <path class="cls-1" d="M1499.24,825.35h30.08v118.07h71.29v25.88h-101.37v-143.95Z"/>
      </g>
      <g>
        <rect class="cls-1" x="235" y="858.92" width="883.54" height="76.81"/>
        <polygon class="cls-1" points="263.02 801.57 97.2 897.32 263.02 993.07 263.02 801.57"/>
      </g>
      <g>
        <rect class="cls-1" x="235" y="260.7" width="883.54" height="76.81"/>
        <polygon class="cls-1" points="263.02 203.35 97.2 299.1 263.02 394.85 263.02 203.35"/>
      </g>
    </g>
  </g>
</svg>